%TF.GenerationSoftware,KiCad,Pcbnew,(6.0.6)*%
%TF.CreationDate,2023-03-25T21:06:23+13:00*%
%TF.ProjectId,remote_pcb,72656d6f-7465-45f7-9063-622e6b696361,rev?*%
%TF.SameCoordinates,Original*%
%TF.FileFunction,Soldermask,Top*%
%TF.FilePolarity,Negative*%
%FSLAX46Y46*%
G04 Gerber Fmt 4.6, Leading zero omitted, Abs format (unit mm)*
G04 Created by KiCad (PCBNEW (6.0.6)) date 2023-03-25 21:06:23*
%MOMM*%
%LPD*%
G01*
G04 APERTURE LIST*
G04 Aperture macros list*
%AMRoundRect*
0 Rectangle with rounded corners*
0 $1 Rounding radius*
0 $2 $3 $4 $5 $6 $7 $8 $9 X,Y pos of 4 corners*
0 Add a 4 corners polygon primitive as box body*
4,1,4,$2,$3,$4,$5,$6,$7,$8,$9,$2,$3,0*
0 Add four circle primitives for the rounded corners*
1,1,$1+$1,$2,$3*
1,1,$1+$1,$4,$5*
1,1,$1+$1,$6,$7*
1,1,$1+$1,$8,$9*
0 Add four rect primitives between the rounded corners*
20,1,$1+$1,$2,$3,$4,$5,0*
20,1,$1+$1,$4,$5,$6,$7,0*
20,1,$1+$1,$6,$7,$8,$9,0*
20,1,$1+$1,$8,$9,$2,$3,0*%
G04 Aperture macros list end*
%ADD10C,0.010000*%
%ADD11R,2.400000X2.400000*%
%ADD12C,2.400000*%
%ADD13RoundRect,0.250000X-0.250000X0.700000X-0.250000X-0.700000X0.250000X-0.700000X0.250000X0.700000X0*%
%ADD14RoundRect,0.200000X-0.200000X-0.275000X0.200000X-0.275000X0.200000X0.275000X-0.200000X0.275000X0*%
%ADD15RoundRect,0.150000X-0.512500X-0.150000X0.512500X-0.150000X0.512500X0.150000X-0.512500X0.150000X0*%
%ADD16R,0.800000X0.400000*%
%ADD17R,0.400000X0.800000*%
%ADD18R,1.450000X1.450000*%
%ADD19R,0.700000X0.700000*%
%ADD20RoundRect,0.225000X0.225000X0.250000X-0.225000X0.250000X-0.225000X-0.250000X0.225000X-0.250000X0*%
%ADD21RoundRect,0.218750X0.218750X0.256250X-0.218750X0.256250X-0.218750X-0.256250X0.218750X-0.256250X0*%
%ADD22RoundRect,0.225000X-0.250000X0.225000X-0.250000X-0.225000X0.250000X-0.225000X0.250000X0.225000X0*%
%ADD23RoundRect,0.200000X0.200000X0.275000X-0.200000X0.275000X-0.200000X-0.275000X0.200000X-0.275000X0*%
%ADD24R,0.914400X1.219200*%
%ADD25RoundRect,0.020500X-0.184500X0.819500X-0.184500X-0.819500X0.184500X-0.819500X0.184500X0.819500X0*%
%ADD26R,4.000000X2.650000*%
%ADD27C,0.600000*%
%ADD28O,2.000000X0.900000*%
%ADD29O,1.700000X0.900000*%
%ADD30C,3.200000*%
%ADD31RoundRect,0.225000X-0.225000X-0.250000X0.225000X-0.250000X0.225000X0.250000X-0.225000X0.250000X0*%
%ADD32RoundRect,0.200000X-0.275000X0.200000X-0.275000X-0.200000X0.275000X-0.200000X0.275000X0.200000X0*%
%ADD33RoundRect,0.225000X0.250000X-0.225000X0.250000X0.225000X-0.250000X0.225000X-0.250000X-0.225000X0*%
G04 APERTURE END LIST*
%TO.C,U1*%
G36*
X168850000Y-64550000D02*
G01*
X167200000Y-64550000D01*
X167200000Y-63560000D01*
X167860000Y-62900000D01*
X168850000Y-62900000D01*
X168850000Y-64550000D01*
G37*
D10*
X168850000Y-64550000D02*
X167200000Y-64550000D01*
X167200000Y-63560000D01*
X167860000Y-62900000D01*
X168850000Y-62900000D01*
X168850000Y-64550000D01*
%TO.C,J1*%
G36*
X183855400Y-66453800D02*
G01*
X182615400Y-66453800D01*
X182615400Y-65753800D01*
X183855400Y-65753800D01*
X183855400Y-66453800D01*
G37*
X183855400Y-66453800D02*
X182615400Y-66453800D01*
X182615400Y-65753800D01*
X183855400Y-65753800D01*
X183855400Y-66453800D01*
G36*
X183855400Y-68953800D02*
G01*
X182615400Y-68953800D01*
X182615400Y-68553800D01*
X183855400Y-68553800D01*
X183855400Y-68953800D01*
G37*
X183855400Y-68953800D02*
X182615400Y-68953800D01*
X182615400Y-68553800D01*
X183855400Y-68553800D01*
X183855400Y-68953800D01*
G36*
X183855400Y-72053800D02*
G01*
X182615400Y-72053800D01*
X182615400Y-71353800D01*
X183855400Y-71353800D01*
X183855400Y-72053800D01*
G37*
X183855400Y-72053800D02*
X182615400Y-72053800D01*
X182615400Y-71353800D01*
X183855400Y-71353800D01*
X183855400Y-72053800D01*
G36*
X183855400Y-67453800D02*
G01*
X182615400Y-67453800D01*
X182615400Y-67053800D01*
X183855400Y-67053800D01*
X183855400Y-67453800D01*
G37*
X183855400Y-67453800D02*
X182615400Y-67453800D01*
X182615400Y-67053800D01*
X183855400Y-67053800D01*
X183855400Y-67453800D01*
G36*
X183855400Y-68453800D02*
G01*
X182615400Y-68453800D01*
X182615400Y-68053800D01*
X183855400Y-68053800D01*
X183855400Y-68453800D01*
G37*
X183855400Y-68453800D02*
X182615400Y-68453800D01*
X182615400Y-68053800D01*
X183855400Y-68053800D01*
X183855400Y-68453800D01*
G36*
X183855400Y-69953800D02*
G01*
X182615400Y-69953800D01*
X182615400Y-69553800D01*
X183855400Y-69553800D01*
X183855400Y-69953800D01*
G37*
X183855400Y-69953800D02*
X182615400Y-69953800D01*
X182615400Y-69553800D01*
X183855400Y-69553800D01*
X183855400Y-69953800D01*
G36*
X183855400Y-70453800D02*
G01*
X182615400Y-70453800D01*
X182615400Y-70053800D01*
X183855400Y-70053800D01*
X183855400Y-70453800D01*
G37*
X183855400Y-70453800D02*
X182615400Y-70453800D01*
X182615400Y-70053800D01*
X183855400Y-70053800D01*
X183855400Y-70453800D01*
G36*
X183855400Y-69453800D02*
G01*
X182615400Y-69453800D01*
X182615400Y-69053800D01*
X183855400Y-69053800D01*
X183855400Y-69453800D01*
G37*
X183855400Y-69453800D02*
X182615400Y-69453800D01*
X182615400Y-69053800D01*
X183855400Y-69053800D01*
X183855400Y-69453800D01*
G36*
X183855400Y-67953800D02*
G01*
X182615400Y-67953800D01*
X182615400Y-67553800D01*
X183855400Y-67553800D01*
X183855400Y-67953800D01*
G37*
X183855400Y-67953800D02*
X182615400Y-67953800D01*
X182615400Y-67553800D01*
X183855400Y-67553800D01*
X183855400Y-67953800D01*
G36*
X183855400Y-71253800D02*
G01*
X182615400Y-71253800D01*
X182615400Y-70553800D01*
X183855400Y-70553800D01*
X183855400Y-71253800D01*
G37*
X183855400Y-71253800D02*
X182615400Y-71253800D01*
X182615400Y-70553800D01*
X183855400Y-70553800D01*
X183855400Y-71253800D01*
G36*
X183855400Y-65653800D02*
G01*
X182615400Y-65653800D01*
X182615400Y-64953800D01*
X183855400Y-64953800D01*
X183855400Y-65653800D01*
G37*
X183855400Y-65653800D02*
X182615400Y-65653800D01*
X182615400Y-64953800D01*
X183855400Y-64953800D01*
X183855400Y-65653800D01*
G36*
X183855400Y-66953800D02*
G01*
X182615400Y-66953800D01*
X182615400Y-66553800D01*
X183855400Y-66553800D01*
X183855400Y-66953800D01*
G37*
X183855400Y-66953800D02*
X182615400Y-66953800D01*
X182615400Y-66553800D01*
X183855400Y-66553800D01*
X183855400Y-66953800D01*
%TD*%
D11*
%TO.C,J2*%
X164998400Y-88214200D03*
D12*
X168498400Y-88214200D03*
X171998400Y-88214200D03*
X175498400Y-88214200D03*
%TD*%
D13*
%TO.C,U6*%
X155797800Y-73936000D03*
X155797800Y-83036000D03*
X151897800Y-83036000D03*
X151897800Y-73936000D03*
%TD*%
%TO.C,U5*%
X155727400Y-61842200D03*
X155727400Y-70942200D03*
X151827400Y-70942200D03*
X151827400Y-61842200D03*
%TD*%
D14*
%TO.C,R5*%
X157800000Y-73300000D03*
X159450000Y-73300000D03*
%TD*%
D15*
%TO.C,U2*%
X178415100Y-67579200D03*
X178415100Y-68529200D03*
X178415100Y-69479200D03*
X180690100Y-69479200D03*
X180690100Y-68529200D03*
X180690100Y-67579200D03*
%TD*%
D14*
%TO.C,R1*%
X161950000Y-78900000D03*
X163600000Y-78900000D03*
%TD*%
D16*
%TO.C,U1*%
X164100000Y-61700000D03*
X164100000Y-62500000D03*
X164100000Y-63300000D03*
X164100000Y-64100000D03*
X164100000Y-64900000D03*
X164100000Y-65700000D03*
X164100000Y-66500000D03*
X164100000Y-67300000D03*
X164100000Y-68100000D03*
X164100000Y-68900000D03*
X164100000Y-69700000D03*
D17*
X165200000Y-70600000D03*
X166000000Y-70600000D03*
X166800000Y-70600000D03*
X167600000Y-70600000D03*
X168400000Y-70600000D03*
X169200000Y-70600000D03*
X170000000Y-70600000D03*
X170800000Y-70600000D03*
X171600000Y-70600000D03*
X172400000Y-70600000D03*
X173200000Y-70600000D03*
X174000000Y-70600000D03*
X174800000Y-70600000D03*
D16*
X175900000Y-69700000D03*
X175900000Y-68900000D03*
X175900000Y-68100000D03*
X175900000Y-67300000D03*
X175900000Y-66500000D03*
X175900000Y-65700000D03*
X175900000Y-64900000D03*
X175900000Y-64100000D03*
X175900000Y-63300000D03*
X175900000Y-62500000D03*
X175900000Y-61700000D03*
D17*
X174800000Y-60800000D03*
X174000000Y-60800000D03*
X173200000Y-60800000D03*
X172400000Y-60800000D03*
X171600000Y-60800000D03*
X170800000Y-60800000D03*
X170000000Y-60800000D03*
X169200000Y-60800000D03*
X168400000Y-60800000D03*
X167600000Y-60800000D03*
X166800000Y-60800000D03*
X166000000Y-60800000D03*
X165200000Y-60800000D03*
D18*
X170000000Y-63725000D03*
X171975000Y-63725000D03*
X171975000Y-65700000D03*
X171975000Y-67675000D03*
X170000000Y-67675000D03*
X168025000Y-67675000D03*
X168025000Y-65700000D03*
X170000000Y-65700000D03*
D19*
X175950000Y-60750000D03*
X175950000Y-70650000D03*
X164050000Y-70650000D03*
X164050000Y-60750000D03*
%TD*%
D20*
%TO.C,C8*%
X166300000Y-82800000D03*
X164750000Y-82800000D03*
%TD*%
D21*
%TO.C,D4*%
X160037500Y-75600000D03*
X158462500Y-75600000D03*
%TD*%
D22*
%TO.C,C1*%
X181038300Y-79000000D03*
X181038300Y-80550000D03*
%TD*%
D20*
%TO.C,C7*%
X175100000Y-82700000D03*
X173550000Y-82700000D03*
%TD*%
D23*
%TO.C,R3*%
X180700000Y-64600000D03*
X179050000Y-64600000D03*
%TD*%
%TO.C,R2*%
X180900000Y-72000000D03*
X179250000Y-72000000D03*
%TD*%
D24*
%TO.C,D3*%
X175800000Y-80100000D03*
X179076600Y-80100000D03*
%TD*%
D14*
%TO.C,R6*%
X158875000Y-68200000D03*
X160525000Y-68200000D03*
%TD*%
D25*
%TO.C,U3*%
X171901400Y-76766400D03*
X171251400Y-76766400D03*
X170601400Y-76766400D03*
X169951400Y-76766400D03*
X169301400Y-76766400D03*
X168651400Y-76766400D03*
X168001400Y-76766400D03*
X168001400Y-81996400D03*
X168651400Y-81996400D03*
X169301400Y-81996400D03*
X169951400Y-81996400D03*
X170601400Y-81996400D03*
X171251400Y-81996400D03*
X171901400Y-81996400D03*
D26*
X169951400Y-79381400D03*
%TD*%
D27*
%TO.C,J1*%
X184305400Y-65613800D03*
X184305400Y-71393800D03*
D28*
X183815400Y-72828800D03*
X183815400Y-64178800D03*
D29*
X187985400Y-72828800D03*
X187985400Y-64178800D03*
%TD*%
D30*
%TO.C,H3*%
X185000000Y-88000000D03*
%TD*%
%TO.C,H4*%
X155000000Y-88000000D03*
%TD*%
D31*
%TO.C,C4*%
X158050000Y-61700000D03*
X159600000Y-61700000D03*
%TD*%
D20*
%TO.C,C5*%
X159450000Y-71400000D03*
X157900000Y-71400000D03*
%TD*%
D23*
%TO.C,R4*%
X159600000Y-63500000D03*
X157950000Y-63500000D03*
%TD*%
D21*
%TO.C,D2*%
X158425000Y-78700000D03*
X160000000Y-78700000D03*
%TD*%
D32*
%TO.C,R10*%
X169164000Y-72771000D03*
X169164000Y-74421000D03*
%TD*%
D31*
%TO.C,C3*%
X187288300Y-79050000D03*
X188838300Y-79050000D03*
%TD*%
D32*
%TO.C,R11*%
X172364400Y-72771000D03*
X172364400Y-74421000D03*
%TD*%
D24*
%TO.C,D1*%
X175861700Y-77300000D03*
X179138300Y-77300000D03*
%TD*%
D32*
%TO.C,R12*%
X167563800Y-72771000D03*
X167563800Y-74421000D03*
%TD*%
%TO.C,R9*%
X170764200Y-72771000D03*
X170764200Y-74421000D03*
%TD*%
D15*
%TO.C,U4*%
X183000800Y-78900000D03*
X183000800Y-79850000D03*
X183000800Y-80800000D03*
X185275800Y-80800000D03*
X185275800Y-78900000D03*
%TD*%
D30*
%TO.C,H1*%
X155000000Y-57000000D03*
%TD*%
D23*
%TO.C,R7*%
X160550000Y-66600000D03*
X158900000Y-66600000D03*
%TD*%
D31*
%TO.C,C2*%
X187238300Y-80750000D03*
X188788300Y-80750000D03*
%TD*%
D33*
%TO.C,C6*%
X166000000Y-80650000D03*
X166000000Y-79100000D03*
%TD*%
D30*
%TO.C,H2*%
X185000000Y-57000000D03*
%TD*%
D14*
%TO.C,R8*%
X161950000Y-75600000D03*
X163600000Y-75600000D03*
%TD*%
M02*
