%TF.GenerationSoftware,KiCad,Pcbnew,(6.0.6)*%
%TF.CreationDate,2023-03-25T21:06:23+13:00*%
%TF.ProjectId,remote_pcb,72656d6f-7465-45f7-9063-622e6b696361,rev?*%
%TF.SameCoordinates,Original*%
%TF.FileFunction,Legend,Top*%
%TF.FilePolarity,Positive*%
%FSLAX46Y46*%
G04 Gerber Fmt 4.6, Leading zero omitted, Abs format (unit mm)*
G04 Created by KiCad (PCBNEW (6.0.6)) date 2023-03-25 21:06:23*
%MOMM*%
%LPD*%
G01*
G04 APERTURE LIST*
%ADD10C,0.150000*%
%ADD11C,0.120000*%
%ADD12C,0.127000*%
%ADD13C,0.200000*%
%ADD14C,0.010000*%
G04 APERTURE END LIST*
D10*
%TO.C,J2*%
X169491066Y-83399380D02*
X169491066Y-84113666D01*
X169443447Y-84256523D01*
X169348209Y-84351761D01*
X169205352Y-84399380D01*
X169110114Y-84399380D01*
X169919638Y-83494619D02*
X169967257Y-83447000D01*
X170062495Y-83399380D01*
X170300590Y-83399380D01*
X170395828Y-83447000D01*
X170443447Y-83494619D01*
X170491066Y-83589857D01*
X170491066Y-83685095D01*
X170443447Y-83827952D01*
X169872019Y-84399380D01*
X170491066Y-84399380D01*
%TO.C,U6*%
X157621219Y-77622495D02*
X156811695Y-77622495D01*
X156716457Y-77670114D01*
X156668838Y-77717733D01*
X156621219Y-77812971D01*
X156621219Y-78003447D01*
X156668838Y-78098685D01*
X156716457Y-78146304D01*
X156811695Y-78193923D01*
X157621219Y-78193923D01*
X157621219Y-79098685D02*
X157621219Y-78908209D01*
X157573600Y-78812971D01*
X157525980Y-78765352D01*
X157383123Y-78670114D01*
X157192647Y-78622495D01*
X156811695Y-78622495D01*
X156716457Y-78670114D01*
X156668838Y-78717733D01*
X156621219Y-78812971D01*
X156621219Y-79003447D01*
X156668838Y-79098685D01*
X156716457Y-79146304D01*
X156811695Y-79193923D01*
X157049790Y-79193923D01*
X157145028Y-79146304D01*
X157192647Y-79098685D01*
X157240266Y-79003447D01*
X157240266Y-78812971D01*
X157192647Y-78717733D01*
X157145028Y-78670114D01*
X157049790Y-78622495D01*
%TO.C,U5*%
X157748219Y-65506695D02*
X156938695Y-65506695D01*
X156843457Y-65554314D01*
X156795838Y-65601933D01*
X156748219Y-65697171D01*
X156748219Y-65887647D01*
X156795838Y-65982885D01*
X156843457Y-66030504D01*
X156938695Y-66078123D01*
X157748219Y-66078123D01*
X157748219Y-67030504D02*
X157748219Y-66554314D01*
X157272028Y-66506695D01*
X157319647Y-66554314D01*
X157367266Y-66649552D01*
X157367266Y-66887647D01*
X157319647Y-66982885D01*
X157272028Y-67030504D01*
X157176790Y-67078123D01*
X156938695Y-67078123D01*
X156843457Y-67030504D01*
X156795838Y-66982885D01*
X156748219Y-66887647D01*
X156748219Y-66649552D01*
X156795838Y-66554314D01*
X156843457Y-66506695D01*
%TO.C,R5*%
X160933333Y-73852380D02*
X160600000Y-73376190D01*
X160361904Y-73852380D02*
X160361904Y-72852380D01*
X160742857Y-72852380D01*
X160838095Y-72900000D01*
X160885714Y-72947619D01*
X160933333Y-73042857D01*
X160933333Y-73185714D01*
X160885714Y-73280952D01*
X160838095Y-73328571D01*
X160742857Y-73376190D01*
X160361904Y-73376190D01*
X161838095Y-72852380D02*
X161361904Y-72852380D01*
X161314285Y-73328571D01*
X161361904Y-73280952D01*
X161457142Y-73233333D01*
X161695238Y-73233333D01*
X161790476Y-73280952D01*
X161838095Y-73328571D01*
X161885714Y-73423809D01*
X161885714Y-73661904D01*
X161838095Y-73757142D01*
X161790476Y-73804761D01*
X161695238Y-73852380D01*
X161457142Y-73852380D01*
X161361904Y-73804761D01*
X161314285Y-73757142D01*
%TO.C,U2*%
X178790695Y-65581580D02*
X178790695Y-66391104D01*
X178838314Y-66486342D01*
X178885933Y-66533961D01*
X178981171Y-66581580D01*
X179171647Y-66581580D01*
X179266885Y-66533961D01*
X179314504Y-66486342D01*
X179362123Y-66391104D01*
X179362123Y-65581580D01*
X179790695Y-65676819D02*
X179838314Y-65629200D01*
X179933552Y-65581580D01*
X180171647Y-65581580D01*
X180266885Y-65629200D01*
X180314504Y-65676819D01*
X180362123Y-65772057D01*
X180362123Y-65867295D01*
X180314504Y-66010152D01*
X179743076Y-66581580D01*
X180362123Y-66581580D01*
%TO.C,R1*%
X162647333Y-80902380D02*
X162314000Y-80426190D01*
X162075904Y-80902380D02*
X162075904Y-79902380D01*
X162456857Y-79902380D01*
X162552095Y-79950000D01*
X162599714Y-79997619D01*
X162647333Y-80092857D01*
X162647333Y-80235714D01*
X162599714Y-80330952D01*
X162552095Y-80378571D01*
X162456857Y-80426190D01*
X162075904Y-80426190D01*
X163599714Y-80902380D02*
X163028285Y-80902380D01*
X163314000Y-80902380D02*
X163314000Y-79902380D01*
X163218761Y-80045238D01*
X163123523Y-80140476D01*
X163028285Y-80188095D01*
%TO.C,U1*%
X165563095Y-52817380D02*
X165563095Y-53626904D01*
X165610714Y-53722142D01*
X165658333Y-53769761D01*
X165753571Y-53817380D01*
X165944047Y-53817380D01*
X166039285Y-53769761D01*
X166086904Y-53722142D01*
X166134523Y-53626904D01*
X166134523Y-52817380D01*
X167134523Y-53817380D02*
X166563095Y-53817380D01*
X166848809Y-53817380D02*
X166848809Y-52817380D01*
X166753571Y-52960238D01*
X166658333Y-53055476D01*
X166563095Y-53103095D01*
%TO.C,C8*%
X162748933Y-83110342D02*
X162701314Y-83157961D01*
X162558457Y-83205580D01*
X162463219Y-83205580D01*
X162320361Y-83157961D01*
X162225123Y-83062723D01*
X162177504Y-82967485D01*
X162129885Y-82777009D01*
X162129885Y-82634152D01*
X162177504Y-82443676D01*
X162225123Y-82348438D01*
X162320361Y-82253200D01*
X162463219Y-82205580D01*
X162558457Y-82205580D01*
X162701314Y-82253200D01*
X162748933Y-82300819D01*
X163320361Y-82634152D02*
X163225123Y-82586533D01*
X163177504Y-82538914D01*
X163129885Y-82443676D01*
X163129885Y-82396057D01*
X163177504Y-82300819D01*
X163225123Y-82253200D01*
X163320361Y-82205580D01*
X163510838Y-82205580D01*
X163606076Y-82253200D01*
X163653695Y-82300819D01*
X163701314Y-82396057D01*
X163701314Y-82443676D01*
X163653695Y-82538914D01*
X163606076Y-82586533D01*
X163510838Y-82634152D01*
X163320361Y-82634152D01*
X163225123Y-82681771D01*
X163177504Y-82729390D01*
X163129885Y-82824628D01*
X163129885Y-83015104D01*
X163177504Y-83110342D01*
X163225123Y-83157961D01*
X163320361Y-83205580D01*
X163510838Y-83205580D01*
X163606076Y-83157961D01*
X163653695Y-83110342D01*
X163701314Y-83015104D01*
X163701314Y-82824628D01*
X163653695Y-82729390D01*
X163606076Y-82681771D01*
X163510838Y-82634152D01*
%TO.C,D4*%
X158519904Y-77617580D02*
X158519904Y-76617580D01*
X158758000Y-76617580D01*
X158900857Y-76665200D01*
X158996095Y-76760438D01*
X159043714Y-76855676D01*
X159091333Y-77046152D01*
X159091333Y-77189009D01*
X159043714Y-77379485D01*
X158996095Y-77474723D01*
X158900857Y-77569961D01*
X158758000Y-77617580D01*
X158519904Y-77617580D01*
X159948476Y-76950914D02*
X159948476Y-77617580D01*
X159710380Y-76569961D02*
X159472285Y-77284247D01*
X160091333Y-77284247D01*
%TO.C,C1*%
X180971633Y-77707142D02*
X180924014Y-77754761D01*
X180781157Y-77802380D01*
X180685919Y-77802380D01*
X180543061Y-77754761D01*
X180447823Y-77659523D01*
X180400204Y-77564285D01*
X180352585Y-77373809D01*
X180352585Y-77230952D01*
X180400204Y-77040476D01*
X180447823Y-76945238D01*
X180543061Y-76850000D01*
X180685919Y-76802380D01*
X180781157Y-76802380D01*
X180924014Y-76850000D01*
X180971633Y-76897619D01*
X181924014Y-77802380D02*
X181352585Y-77802380D01*
X181638300Y-77802380D02*
X181638300Y-76802380D01*
X181543061Y-76945238D01*
X181447823Y-77040476D01*
X181352585Y-77088095D01*
%TO.C,C7*%
X176833333Y-83057142D02*
X176785714Y-83104761D01*
X176642857Y-83152380D01*
X176547619Y-83152380D01*
X176404761Y-83104761D01*
X176309523Y-83009523D01*
X176261904Y-82914285D01*
X176214285Y-82723809D01*
X176214285Y-82580952D01*
X176261904Y-82390476D01*
X176309523Y-82295238D01*
X176404761Y-82200000D01*
X176547619Y-82152380D01*
X176642857Y-82152380D01*
X176785714Y-82200000D01*
X176833333Y-82247619D01*
X177166666Y-82152380D02*
X177833333Y-82152380D01*
X177404761Y-83152380D01*
%TO.C,R3*%
X179708333Y-63652380D02*
X179375000Y-63176190D01*
X179136904Y-63652380D02*
X179136904Y-62652380D01*
X179517857Y-62652380D01*
X179613095Y-62700000D01*
X179660714Y-62747619D01*
X179708333Y-62842857D01*
X179708333Y-62985714D01*
X179660714Y-63080952D01*
X179613095Y-63128571D01*
X179517857Y-63176190D01*
X179136904Y-63176190D01*
X180041666Y-62652380D02*
X180660714Y-62652380D01*
X180327380Y-63033333D01*
X180470238Y-63033333D01*
X180565476Y-63080952D01*
X180613095Y-63128571D01*
X180660714Y-63223809D01*
X180660714Y-63461904D01*
X180613095Y-63557142D01*
X180565476Y-63604761D01*
X180470238Y-63652380D01*
X180184523Y-63652380D01*
X180089285Y-63604761D01*
X180041666Y-63557142D01*
%TO.C,R2*%
X179908333Y-73882380D02*
X179575000Y-73406190D01*
X179336904Y-73882380D02*
X179336904Y-72882380D01*
X179717857Y-72882380D01*
X179813095Y-72930000D01*
X179860714Y-72977619D01*
X179908333Y-73072857D01*
X179908333Y-73215714D01*
X179860714Y-73310952D01*
X179813095Y-73358571D01*
X179717857Y-73406190D01*
X179336904Y-73406190D01*
X180289285Y-72977619D02*
X180336904Y-72930000D01*
X180432142Y-72882380D01*
X180670238Y-72882380D01*
X180765476Y-72930000D01*
X180813095Y-72977619D01*
X180860714Y-73072857D01*
X180860714Y-73168095D01*
X180813095Y-73310952D01*
X180241666Y-73882380D01*
X180860714Y-73882380D01*
%TO.C,D3*%
X173314367Y-80934555D02*
X173314367Y-80294485D01*
X173466765Y-80294485D01*
X173558203Y-80324965D01*
X173619162Y-80385924D01*
X173649642Y-80446883D01*
X173680121Y-80568801D01*
X173680121Y-80660239D01*
X173649642Y-80782157D01*
X173619162Y-80843116D01*
X173558203Y-80904075D01*
X173466765Y-80934555D01*
X173314367Y-80934555D01*
X173893478Y-80294485D02*
X174289712Y-80294485D01*
X174076355Y-80538321D01*
X174167794Y-80538321D01*
X174228753Y-80568801D01*
X174259232Y-80599280D01*
X174289712Y-80660239D01*
X174289712Y-80812637D01*
X174259232Y-80873596D01*
X174228753Y-80904075D01*
X174167794Y-80934555D01*
X173984916Y-80934555D01*
X173923957Y-80904075D01*
X173893478Y-80873596D01*
%TO.C,R6*%
X159658333Y-70252380D02*
X159325000Y-69776190D01*
X159086904Y-70252380D02*
X159086904Y-69252380D01*
X159467857Y-69252380D01*
X159563095Y-69300000D01*
X159610714Y-69347619D01*
X159658333Y-69442857D01*
X159658333Y-69585714D01*
X159610714Y-69680952D01*
X159563095Y-69728571D01*
X159467857Y-69776190D01*
X159086904Y-69776190D01*
X160515476Y-69252380D02*
X160325000Y-69252380D01*
X160229761Y-69300000D01*
X160182142Y-69347619D01*
X160086904Y-69490476D01*
X160039285Y-69680952D01*
X160039285Y-70061904D01*
X160086904Y-70157142D01*
X160134523Y-70204761D01*
X160229761Y-70252380D01*
X160420238Y-70252380D01*
X160515476Y-70204761D01*
X160563095Y-70157142D01*
X160610714Y-70061904D01*
X160610714Y-69823809D01*
X160563095Y-69728571D01*
X160515476Y-69680952D01*
X160420238Y-69633333D01*
X160229761Y-69633333D01*
X160134523Y-69680952D01*
X160086904Y-69728571D01*
X160039285Y-69823809D01*
%TO.C,U3*%
X173038780Y-79818304D02*
X173848304Y-79818304D01*
X173943542Y-79770685D01*
X173991161Y-79723066D01*
X174038780Y-79627828D01*
X174038780Y-79437352D01*
X173991161Y-79342114D01*
X173943542Y-79294495D01*
X173848304Y-79246876D01*
X173038780Y-79246876D01*
X173038780Y-78865923D02*
X173038780Y-78246876D01*
X173419733Y-78580209D01*
X173419733Y-78437352D01*
X173467352Y-78342114D01*
X173514971Y-78294495D01*
X173610209Y-78246876D01*
X173848304Y-78246876D01*
X173943542Y-78294495D01*
X173991161Y-78342114D01*
X174038780Y-78437352D01*
X174038780Y-78723066D01*
X173991161Y-78818304D01*
X173943542Y-78865923D01*
%TO.C,J1*%
X185772466Y-73874380D02*
X185772466Y-74588666D01*
X185724847Y-74731523D01*
X185629609Y-74826761D01*
X185486752Y-74874380D01*
X185391514Y-74874380D01*
X186772466Y-74874380D02*
X186201038Y-74874380D01*
X186486752Y-74874380D02*
X186486752Y-73874380D01*
X186391514Y-74017238D01*
X186296276Y-74112476D01*
X186201038Y-74160095D01*
%TO.C,C4*%
X161233333Y-62057142D02*
X161185714Y-62104761D01*
X161042857Y-62152380D01*
X160947619Y-62152380D01*
X160804761Y-62104761D01*
X160709523Y-62009523D01*
X160661904Y-61914285D01*
X160614285Y-61723809D01*
X160614285Y-61580952D01*
X160661904Y-61390476D01*
X160709523Y-61295238D01*
X160804761Y-61200000D01*
X160947619Y-61152380D01*
X161042857Y-61152380D01*
X161185714Y-61200000D01*
X161233333Y-61247619D01*
X162090476Y-61485714D02*
X162090476Y-62152380D01*
X161852380Y-61104761D02*
X161614285Y-61819047D01*
X162233333Y-61819047D01*
%TO.C,C5*%
X161033333Y-71957142D02*
X160985714Y-72004761D01*
X160842857Y-72052380D01*
X160747619Y-72052380D01*
X160604761Y-72004761D01*
X160509523Y-71909523D01*
X160461904Y-71814285D01*
X160414285Y-71623809D01*
X160414285Y-71480952D01*
X160461904Y-71290476D01*
X160509523Y-71195238D01*
X160604761Y-71100000D01*
X160747619Y-71052380D01*
X160842857Y-71052380D01*
X160985714Y-71100000D01*
X161033333Y-71147619D01*
X161938095Y-71052380D02*
X161461904Y-71052380D01*
X161414285Y-71528571D01*
X161461904Y-71480952D01*
X161557142Y-71433333D01*
X161795238Y-71433333D01*
X161890476Y-71480952D01*
X161938095Y-71528571D01*
X161985714Y-71623809D01*
X161985714Y-71861904D01*
X161938095Y-71957142D01*
X161890476Y-72004761D01*
X161795238Y-72052380D01*
X161557142Y-72052380D01*
X161461904Y-72004761D01*
X161414285Y-71957142D01*
%TO.C,R4*%
X161333333Y-63952380D02*
X161000000Y-63476190D01*
X160761904Y-63952380D02*
X160761904Y-62952380D01*
X161142857Y-62952380D01*
X161238095Y-63000000D01*
X161285714Y-63047619D01*
X161333333Y-63142857D01*
X161333333Y-63285714D01*
X161285714Y-63380952D01*
X161238095Y-63428571D01*
X161142857Y-63476190D01*
X160761904Y-63476190D01*
X162190476Y-63285714D02*
X162190476Y-63952380D01*
X161952380Y-62904761D02*
X161714285Y-63619047D01*
X162333333Y-63619047D01*
%TO.C,D2*%
X158469104Y-80741780D02*
X158469104Y-79741780D01*
X158707200Y-79741780D01*
X158850057Y-79789400D01*
X158945295Y-79884638D01*
X158992914Y-79979876D01*
X159040533Y-80170352D01*
X159040533Y-80313209D01*
X158992914Y-80503685D01*
X158945295Y-80598923D01*
X158850057Y-80694161D01*
X158707200Y-80741780D01*
X158469104Y-80741780D01*
X159421485Y-79837019D02*
X159469104Y-79789400D01*
X159564342Y-79741780D01*
X159802438Y-79741780D01*
X159897676Y-79789400D01*
X159945295Y-79837019D01*
X159992914Y-79932257D01*
X159992914Y-80027495D01*
X159945295Y-80170352D01*
X159373866Y-80741780D01*
X159992914Y-80741780D01*
%TO.C,R10*%
X164685742Y-72715380D02*
X164352409Y-72239190D01*
X164114314Y-72715380D02*
X164114314Y-71715380D01*
X164495266Y-71715380D01*
X164590504Y-71763000D01*
X164638123Y-71810619D01*
X164685742Y-71905857D01*
X164685742Y-72048714D01*
X164638123Y-72143952D01*
X164590504Y-72191571D01*
X164495266Y-72239190D01*
X164114314Y-72239190D01*
X165638123Y-72715380D02*
X165066695Y-72715380D01*
X165352409Y-72715380D02*
X165352409Y-71715380D01*
X165257171Y-71858238D01*
X165161933Y-71953476D01*
X165066695Y-72001095D01*
X166257171Y-71715380D02*
X166352409Y-71715380D01*
X166447647Y-71763000D01*
X166495266Y-71810619D01*
X166542885Y-71905857D01*
X166590504Y-72096333D01*
X166590504Y-72334428D01*
X166542885Y-72524904D01*
X166495266Y-72620142D01*
X166447647Y-72667761D01*
X166352409Y-72715380D01*
X166257171Y-72715380D01*
X166161933Y-72667761D01*
X166114314Y-72620142D01*
X166066695Y-72524904D01*
X166019076Y-72334428D01*
X166019076Y-72096333D01*
X166066695Y-71905857D01*
X166114314Y-71810619D01*
X166161933Y-71763000D01*
X166257171Y-71715380D01*
%TO.C,C3*%
X187896633Y-77977142D02*
X187849014Y-78024761D01*
X187706157Y-78072380D01*
X187610919Y-78072380D01*
X187468061Y-78024761D01*
X187372823Y-77929523D01*
X187325204Y-77834285D01*
X187277585Y-77643809D01*
X187277585Y-77500952D01*
X187325204Y-77310476D01*
X187372823Y-77215238D01*
X187468061Y-77120000D01*
X187610919Y-77072380D01*
X187706157Y-77072380D01*
X187849014Y-77120000D01*
X187896633Y-77167619D01*
X188229966Y-77072380D02*
X188849014Y-77072380D01*
X188515680Y-77453333D01*
X188658538Y-77453333D01*
X188753776Y-77500952D01*
X188801395Y-77548571D01*
X188849014Y-77643809D01*
X188849014Y-77881904D01*
X188801395Y-77977142D01*
X188753776Y-78024761D01*
X188658538Y-78072380D01*
X188372823Y-78072380D01*
X188277585Y-78024761D01*
X188229966Y-77977142D01*
%TO.C,R11*%
X173956742Y-74950580D02*
X173623409Y-74474390D01*
X173385314Y-74950580D02*
X173385314Y-73950580D01*
X173766266Y-73950580D01*
X173861504Y-73998200D01*
X173909123Y-74045819D01*
X173956742Y-74141057D01*
X173956742Y-74283914D01*
X173909123Y-74379152D01*
X173861504Y-74426771D01*
X173766266Y-74474390D01*
X173385314Y-74474390D01*
X174909123Y-74950580D02*
X174337695Y-74950580D01*
X174623409Y-74950580D02*
X174623409Y-73950580D01*
X174528171Y-74093438D01*
X174432933Y-74188676D01*
X174337695Y-74236295D01*
X175861504Y-74950580D02*
X175290076Y-74950580D01*
X175575790Y-74950580D02*
X175575790Y-73950580D01*
X175480552Y-74093438D01*
X175385314Y-74188676D01*
X175290076Y-74236295D01*
%TO.C,D1*%
X173700167Y-77665755D02*
X173700167Y-77025685D01*
X173852565Y-77025685D01*
X173944003Y-77056165D01*
X174004962Y-77117124D01*
X174035442Y-77178083D01*
X174065921Y-77300001D01*
X174065921Y-77391439D01*
X174035442Y-77513357D01*
X174004962Y-77574316D01*
X173944003Y-77635275D01*
X173852565Y-77665755D01*
X173700167Y-77665755D01*
X174675512Y-77665755D02*
X174309757Y-77665755D01*
X174492635Y-77665755D02*
X174492635Y-77025685D01*
X174431675Y-77117124D01*
X174370716Y-77178083D01*
X174309757Y-77208562D01*
%TO.C,R12*%
X164761942Y-74772780D02*
X164428609Y-74296590D01*
X164190514Y-74772780D02*
X164190514Y-73772780D01*
X164571466Y-73772780D01*
X164666704Y-73820400D01*
X164714323Y-73868019D01*
X164761942Y-73963257D01*
X164761942Y-74106114D01*
X164714323Y-74201352D01*
X164666704Y-74248971D01*
X164571466Y-74296590D01*
X164190514Y-74296590D01*
X165714323Y-74772780D02*
X165142895Y-74772780D01*
X165428609Y-74772780D02*
X165428609Y-73772780D01*
X165333371Y-73915638D01*
X165238133Y-74010876D01*
X165142895Y-74058495D01*
X166095276Y-73868019D02*
X166142895Y-73820400D01*
X166238133Y-73772780D01*
X166476228Y-73772780D01*
X166571466Y-73820400D01*
X166619085Y-73868019D01*
X166666704Y-73963257D01*
X166666704Y-74058495D01*
X166619085Y-74201352D01*
X166047657Y-74772780D01*
X166666704Y-74772780D01*
%TO.C,R9*%
X174128133Y-73274180D02*
X173794800Y-72797990D01*
X173556704Y-73274180D02*
X173556704Y-72274180D01*
X173937657Y-72274180D01*
X174032895Y-72321800D01*
X174080514Y-72369419D01*
X174128133Y-72464657D01*
X174128133Y-72607514D01*
X174080514Y-72702752D01*
X174032895Y-72750371D01*
X173937657Y-72797990D01*
X173556704Y-72797990D01*
X174604323Y-73274180D02*
X174794800Y-73274180D01*
X174890038Y-73226561D01*
X174937657Y-73178942D01*
X175032895Y-73036085D01*
X175080514Y-72845609D01*
X175080514Y-72464657D01*
X175032895Y-72369419D01*
X174985276Y-72321800D01*
X174890038Y-72274180D01*
X174699561Y-72274180D01*
X174604323Y-72321800D01*
X174556704Y-72369419D01*
X174509085Y-72464657D01*
X174509085Y-72702752D01*
X174556704Y-72797990D01*
X174604323Y-72845609D01*
X174699561Y-72893228D01*
X174890038Y-72893228D01*
X174985276Y-72845609D01*
X175032895Y-72797990D01*
X175080514Y-72702752D01*
%TO.C,U4*%
X183376395Y-76902380D02*
X183376395Y-77711904D01*
X183424014Y-77807142D01*
X183471633Y-77854761D01*
X183566871Y-77902380D01*
X183757347Y-77902380D01*
X183852585Y-77854761D01*
X183900204Y-77807142D01*
X183947823Y-77711904D01*
X183947823Y-76902380D01*
X184852585Y-77235714D02*
X184852585Y-77902380D01*
X184614490Y-76854761D02*
X184376395Y-77569047D01*
X184995442Y-77569047D01*
%TO.C,R7*%
X159958333Y-65452380D02*
X159625000Y-64976190D01*
X159386904Y-65452380D02*
X159386904Y-64452380D01*
X159767857Y-64452380D01*
X159863095Y-64500000D01*
X159910714Y-64547619D01*
X159958333Y-64642857D01*
X159958333Y-64785714D01*
X159910714Y-64880952D01*
X159863095Y-64928571D01*
X159767857Y-64976190D01*
X159386904Y-64976190D01*
X160291666Y-64452380D02*
X160958333Y-64452380D01*
X160529761Y-65452380D01*
%TO.C,C2*%
X187771633Y-82707142D02*
X187724014Y-82754761D01*
X187581157Y-82802380D01*
X187485919Y-82802380D01*
X187343061Y-82754761D01*
X187247823Y-82659523D01*
X187200204Y-82564285D01*
X187152585Y-82373809D01*
X187152585Y-82230952D01*
X187200204Y-82040476D01*
X187247823Y-81945238D01*
X187343061Y-81850000D01*
X187485919Y-81802380D01*
X187581157Y-81802380D01*
X187724014Y-81850000D01*
X187771633Y-81897619D01*
X188152585Y-81897619D02*
X188200204Y-81850000D01*
X188295442Y-81802380D01*
X188533538Y-81802380D01*
X188628776Y-81850000D01*
X188676395Y-81897619D01*
X188724014Y-81992857D01*
X188724014Y-82088095D01*
X188676395Y-82230952D01*
X188104966Y-82802380D01*
X188724014Y-82802380D01*
%TO.C,C6*%
X165833333Y-77957142D02*
X165785714Y-78004761D01*
X165642857Y-78052380D01*
X165547619Y-78052380D01*
X165404761Y-78004761D01*
X165309523Y-77909523D01*
X165261904Y-77814285D01*
X165214285Y-77623809D01*
X165214285Y-77480952D01*
X165261904Y-77290476D01*
X165309523Y-77195238D01*
X165404761Y-77100000D01*
X165547619Y-77052380D01*
X165642857Y-77052380D01*
X165785714Y-77100000D01*
X165833333Y-77147619D01*
X166690476Y-77052380D02*
X166500000Y-77052380D01*
X166404761Y-77100000D01*
X166357142Y-77147619D01*
X166261904Y-77290476D01*
X166214285Y-77480952D01*
X166214285Y-77861904D01*
X166261904Y-77957142D01*
X166309523Y-78004761D01*
X166404761Y-78052380D01*
X166595238Y-78052380D01*
X166690476Y-78004761D01*
X166738095Y-77957142D01*
X166785714Y-77861904D01*
X166785714Y-77623809D01*
X166738095Y-77528571D01*
X166690476Y-77480952D01*
X166595238Y-77433333D01*
X166404761Y-77433333D01*
X166309523Y-77480952D01*
X166261904Y-77528571D01*
X166214285Y-77623809D01*
%TO.C,R8*%
X162608333Y-77402380D02*
X162275000Y-76926190D01*
X162036904Y-77402380D02*
X162036904Y-76402380D01*
X162417857Y-76402380D01*
X162513095Y-76450000D01*
X162560714Y-76497619D01*
X162608333Y-76592857D01*
X162608333Y-76735714D01*
X162560714Y-76830952D01*
X162513095Y-76878571D01*
X162417857Y-76926190D01*
X162036904Y-76926190D01*
X163179761Y-76830952D02*
X163084523Y-76783333D01*
X163036904Y-76735714D01*
X162989285Y-76640476D01*
X162989285Y-76592857D01*
X163036904Y-76497619D01*
X163084523Y-76450000D01*
X163179761Y-76402380D01*
X163370238Y-76402380D01*
X163465476Y-76450000D01*
X163513095Y-76497619D01*
X163560714Y-76592857D01*
X163560714Y-76640476D01*
X163513095Y-76735714D01*
X163465476Y-76783333D01*
X163370238Y-76830952D01*
X163179761Y-76830952D01*
X163084523Y-76878571D01*
X163036904Y-76926190D01*
X162989285Y-77021428D01*
X162989285Y-77211904D01*
X163036904Y-77307142D01*
X163084523Y-77354761D01*
X163179761Y-77402380D01*
X163370238Y-77402380D01*
X163465476Y-77354761D01*
X163513095Y-77307142D01*
X163560714Y-77211904D01*
X163560714Y-77021428D01*
X163513095Y-76926190D01*
X163465476Y-76878571D01*
X163370238Y-76830952D01*
D11*
%TO.C,J2*%
X167353400Y-89155200D02*
X167224400Y-89283200D01*
X177308400Y-85054200D02*
X177308400Y-92774200D01*
X176568400Y-86939200D02*
X176474400Y-87033200D01*
X170853400Y-89155200D02*
X170724400Y-89283200D01*
X162948400Y-92374200D02*
X162948400Y-93014200D01*
X176773400Y-87145200D02*
X176644400Y-87273200D01*
X167523400Y-89395200D02*
X167429400Y-89488200D01*
X173273400Y-87145200D02*
X173144400Y-87273200D01*
X169568400Y-86939200D02*
X169474400Y-87033200D01*
X163188400Y-91214200D02*
X177308400Y-91214200D01*
X174353400Y-89155200D02*
X174224400Y-89283200D01*
X169773400Y-87145200D02*
X169644400Y-87273200D01*
X163188400Y-85054200D02*
X163188400Y-92774200D01*
X171023400Y-89395200D02*
X170929400Y-89488200D01*
X174523400Y-89395200D02*
X174429400Y-89488200D01*
X173068400Y-86939200D02*
X172974400Y-87033200D01*
X163188400Y-92314200D02*
X177308400Y-92314200D01*
X163188400Y-85054200D02*
X177308400Y-85054200D01*
X162948400Y-93014200D02*
X163348400Y-93014200D01*
X163188400Y-92774200D02*
X177308400Y-92774200D01*
X163558399Y-87348200D02*
G75*
G03*
X163573042Y-89104094I1439999J-866000D01*
G01*
X164132400Y-89654200D02*
G75*
G03*
X165027074Y-89894299I866003J1440014D01*
G01*
X164998400Y-89894200D02*
G75*
G03*
X165888664Y-89638921I3J1679990D01*
G01*
X166423400Y-89105200D02*
G75*
G03*
X166423904Y-87324007I-1425003J891000D01*
G01*
X165864400Y-86774199D02*
G75*
G03*
X164108506Y-86788842I-866000J-1439999D01*
G01*
X177178400Y-88214200D02*
G75*
G03*
X177178400Y-88214200I-1680000J0D01*
G01*
X170178400Y-88214200D02*
G75*
G03*
X170178400Y-88214200I-1680000J0D01*
G01*
X173678400Y-88214200D02*
G75*
G03*
X173678400Y-88214200I-1680000J0D01*
G01*
%TO.C,R5*%
X158387742Y-73822500D02*
X158862258Y-73822500D01*
X158387742Y-72777500D02*
X158862258Y-72777500D01*
%TO.C,U2*%
X179552600Y-70089200D02*
X178752600Y-70089200D01*
X179552600Y-66969200D02*
X177752600Y-66969200D01*
X179552600Y-70089200D02*
X180352600Y-70089200D01*
X179552600Y-66969200D02*
X180352600Y-66969200D01*
%TO.C,R1*%
X162537742Y-79422500D02*
X163012258Y-79422500D01*
X162537742Y-78377500D02*
X163012258Y-78377500D01*
D12*
%TO.C,U1*%
X176600000Y-54700000D02*
X176600000Y-60080000D01*
X163400000Y-60080000D02*
X163400000Y-54700000D01*
X163400000Y-54700000D02*
X176600000Y-54700000D01*
D13*
X162850000Y-61700000D02*
G75*
G03*
X162850000Y-61700000I-100000J0D01*
G01*
D11*
%TO.C,C8*%
X165665580Y-82290000D02*
X165384420Y-82290000D01*
X165665580Y-83310000D02*
X165384420Y-83310000D01*
%TO.C,D4*%
X160735000Y-76335000D02*
X160735000Y-74865000D01*
X160735000Y-74865000D02*
X158450000Y-74865000D01*
X158450000Y-76335000D02*
X160735000Y-76335000D01*
%TO.C,C1*%
X180528300Y-79634420D02*
X180528300Y-79915580D01*
X181548300Y-79634420D02*
X181548300Y-79915580D01*
%TO.C,C7*%
X174465580Y-83210000D02*
X174184420Y-83210000D01*
X174465580Y-82190000D02*
X174184420Y-82190000D01*
%TO.C,R3*%
X180112258Y-64077500D02*
X179637742Y-64077500D01*
X180112258Y-65122500D02*
X179637742Y-65122500D01*
%TO.C,R2*%
X180312258Y-71477500D02*
X179837742Y-71477500D01*
X180312258Y-72522500D02*
X179837742Y-72522500D01*
D12*
%TO.C,D3*%
X176088300Y-79300000D02*
X178788300Y-79300000D01*
X178788300Y-80900000D02*
X176088300Y-80900000D01*
G36*
X178339744Y-80900000D02*
G01*
X177738300Y-80900000D01*
X177738300Y-79298716D01*
X178339744Y-79298716D01*
X178339744Y-80900000D01*
G37*
D14*
X178339744Y-80900000D02*
X177738300Y-80900000D01*
X177738300Y-79298716D01*
X178339744Y-79298716D01*
X178339744Y-80900000D01*
D11*
%TO.C,R6*%
X159462742Y-67677500D02*
X159937258Y-67677500D01*
X159462742Y-68722500D02*
X159937258Y-68722500D01*
D12*
%TO.C,U3*%
X167476400Y-77431400D02*
X167476400Y-81331400D01*
X172426400Y-77431400D02*
X172426400Y-81331400D01*
D13*
X172411400Y-75381400D02*
G75*
G03*
X172411400Y-75381400I-100000J0D01*
G01*
D12*
%TO.C,J1*%
X190585400Y-72973800D02*
X190585400Y-64033800D01*
X190585400Y-64033800D02*
X189155400Y-64033800D01*
X185135400Y-64033800D02*
X186815400Y-64033800D01*
X190585400Y-72973800D02*
X189155400Y-72973800D01*
X185135400Y-72973800D02*
X186815400Y-72973800D01*
D13*
X182085400Y-71703800D02*
G75*
G03*
X182085400Y-71703800I-100000J0D01*
G01*
D11*
%TO.C,C4*%
X158684420Y-62210000D02*
X158965580Y-62210000D01*
X158684420Y-61190000D02*
X158965580Y-61190000D01*
%TO.C,C5*%
X158815580Y-70890000D02*
X158534420Y-70890000D01*
X158815580Y-71910000D02*
X158534420Y-71910000D01*
%TO.C,R4*%
X159012258Y-62977500D02*
X158537742Y-62977500D01*
X159012258Y-64022500D02*
X158537742Y-64022500D01*
%TO.C,D2*%
X160697500Y-77965000D02*
X158412500Y-77965000D01*
X160697500Y-79435000D02*
X160697500Y-77965000D01*
X158412500Y-79435000D02*
X160697500Y-79435000D01*
%TO.C,R10*%
X169686500Y-73358742D02*
X169686500Y-73833258D01*
X168641500Y-73358742D02*
X168641500Y-73833258D01*
%TO.C,C3*%
X187922720Y-78540000D02*
X188203880Y-78540000D01*
X187922720Y-79560000D02*
X188203880Y-79560000D01*
%TO.C,R11*%
X172886900Y-73358742D02*
X172886900Y-73833258D01*
X171841900Y-73358742D02*
X171841900Y-73833258D01*
D12*
%TO.C,D1*%
X178850000Y-78100000D02*
X176150000Y-78100000D01*
X176150000Y-76500000D02*
X178850000Y-76500000D01*
G36*
X178401444Y-78100000D02*
G01*
X177800000Y-78100000D01*
X177800000Y-76498716D01*
X178401444Y-76498716D01*
X178401444Y-78100000D01*
G37*
D14*
X178401444Y-78100000D02*
X177800000Y-78100000D01*
X177800000Y-76498716D01*
X178401444Y-76498716D01*
X178401444Y-78100000D01*
D11*
%TO.C,R12*%
X167041300Y-73358742D02*
X167041300Y-73833258D01*
X168086300Y-73358742D02*
X168086300Y-73833258D01*
%TO.C,R9*%
X170241700Y-73358742D02*
X170241700Y-73833258D01*
X171286700Y-73358742D02*
X171286700Y-73833258D01*
%TO.C,U4*%
X184138300Y-81410000D02*
X183338300Y-81410000D01*
X184138300Y-78290000D02*
X182338300Y-78290000D01*
X184138300Y-78290000D02*
X184938300Y-78290000D01*
X184138300Y-81410000D02*
X184938300Y-81410000D01*
%TO.C,R7*%
X159962258Y-67122500D02*
X159487742Y-67122500D01*
X159962258Y-66077500D02*
X159487742Y-66077500D01*
%TO.C,C2*%
X187872720Y-80240000D02*
X188153880Y-80240000D01*
X187872720Y-81260000D02*
X188153880Y-81260000D01*
%TO.C,C6*%
X166510000Y-80015580D02*
X166510000Y-79734420D01*
X165490000Y-80015580D02*
X165490000Y-79734420D01*
%TO.C,R8*%
X162537742Y-75077500D02*
X163012258Y-75077500D01*
X162537742Y-76122500D02*
X163012258Y-76122500D01*
%TD*%
M02*
