%TF.GenerationSoftware,KiCad,Pcbnew,(6.0.6)*%
%TF.CreationDate,2023-03-25T21:06:23+13:00*%
%TF.ProjectId,remote_pcb,72656d6f-7465-45f7-9063-622e6b696361,rev?*%
%TF.SameCoordinates,Original*%
%TF.FileFunction,Copper,L2,Bot*%
%TF.FilePolarity,Positive*%
%FSLAX46Y46*%
G04 Gerber Fmt 4.6, Leading zero omitted, Abs format (unit mm)*
G04 Created by KiCad (PCBNEW (6.0.6)) date 2023-03-25 21:06:23*
%MOMM*%
%LPD*%
G01*
G04 APERTURE LIST*
%TA.AperFunction,ComponentPad*%
%ADD10R,2.400000X2.400000*%
%TD*%
%TA.AperFunction,ComponentPad*%
%ADD11C,2.400000*%
%TD*%
%TA.AperFunction,ComponentPad*%
%ADD12O,2.000000X0.900000*%
%TD*%
%TA.AperFunction,ComponentPad*%
%ADD13O,1.700000X0.900000*%
%TD*%
%TA.AperFunction,ViaPad*%
%ADD14C,0.800000*%
%TD*%
%TA.AperFunction,Conductor*%
%ADD15C,0.300000*%
%TD*%
%TA.AperFunction,Conductor*%
%ADD16C,0.500000*%
%TD*%
G04 APERTURE END LIST*
D10*
%TO.P,J2,1,Pin_1*%
%TO.N,GND*%
X164998400Y-88214200D03*
D11*
%TO.P,J2,2,Pin_2*%
%TO.N,DN*%
X168498400Y-88214200D03*
%TO.P,J2,3,Pin_3*%
%TO.N,UP*%
X171998400Y-88214200D03*
%TO.P,J2,4,Pin_4*%
%TO.N,+12V*%
X175498400Y-88214200D03*
%TD*%
D12*
%TO.P,J1,S1,SHIELD*%
%TO.N,unconnected-(J1-PadS1)*%
X183815400Y-72828800D03*
%TO.P,J1,S2,SHIELD*%
X183815400Y-64178800D03*
D13*
%TO.P,J1,S3,SHIELD*%
X187985400Y-72828800D03*
%TO.P,J1,S4,SHIELD*%
X187985400Y-64178800D03*
%TD*%
D14*
%TO.N,unconnected-(J1-PadS1)*%
X183565800Y-74091800D03*
%TO.N,GND*%
X158242000Y-69977000D03*
X156743400Y-64389000D03*
X173101000Y-76327000D03*
X166522400Y-76174600D03*
X181051200Y-82346800D03*
X174218600Y-84124800D03*
X169976800Y-62306200D03*
%TO.N,BOOT*%
X173634400Y-68173600D03*
X160807400Y-69773800D03*
%TO.N,Net-(R6-Pad2)*%
X165684200Y-63982600D03*
X160934400Y-64223700D03*
%TO.N,Net-(R8-Pad2)*%
X166344600Y-69316600D03*
X162255200Y-74041000D03*
%TO.N,+12V*%
X157302200Y-68783200D03*
X158242000Y-81813400D03*
%TO.N,CHIP_EN*%
X165760400Y-66573400D03*
X158064200Y-64973200D03*
%TO.N,+3.3V*%
X164439600Y-73279000D03*
X185013600Y-77012800D03*
%TO.N,VBUS*%
X181647800Y-66103800D03*
X185343800Y-68021200D03*
%TO.N,GND*%
X181965600Y-64744600D03*
%TO.N,Net-(J1-PadB5)*%
X181533800Y-62966600D03*
X185674000Y-66776600D03*
%TD*%
D15*
%TO.N,unconnected-(J1-PadS1)*%
X184828800Y-72828800D02*
X187985400Y-72828800D01*
X183565800Y-74091800D02*
X184828800Y-72828800D01*
%TO.N,GND*%
X172948600Y-76174600D02*
X173101000Y-76327000D01*
X166522400Y-76174600D02*
X172948600Y-76174600D01*
%TO.N,BOOT*%
X160807400Y-69773800D02*
X162407600Y-68173600D01*
X162407600Y-68173600D02*
X173634400Y-68173600D01*
%TO.N,Net-(R6-Pad2)*%
X161175500Y-63982600D02*
X165684200Y-63982600D01*
X160934400Y-64223700D02*
X161175500Y-63982600D01*
%TO.N,Net-(R8-Pad2)*%
X162255200Y-73406000D02*
X166344600Y-69316600D01*
X162255200Y-74041000D02*
X162255200Y-73406000D01*
%TO.N,+12V*%
X153593800Y-70256400D02*
X155067000Y-68783200D01*
X155067000Y-68783200D02*
X157302200Y-68783200D01*
X153593800Y-77165200D02*
X153593800Y-70256400D01*
X158242000Y-81813400D02*
X153593800Y-77165200D01*
%TO.N,CHIP_EN*%
X158064200Y-64973200D02*
X164160200Y-64973200D01*
X164160200Y-64973200D02*
X165760400Y-66573400D01*
D16*
%TO.N,+3.3V*%
X183997600Y-75996800D02*
X185013600Y-77012800D01*
X182829200Y-75996800D02*
X183997600Y-75996800D01*
X180238400Y-75996800D02*
X182829200Y-75996800D01*
X179705000Y-75463400D02*
X180238400Y-75996800D01*
X164439600Y-73279000D02*
X177520600Y-73279000D01*
X177520600Y-73279000D02*
X179705000Y-75463400D01*
D15*
%TO.N,VBUS*%
X183426400Y-66103800D02*
X181647800Y-66103800D01*
X185343800Y-68021200D02*
X183426400Y-66103800D01*
%TO.N,Net-(J1-PadB5)*%
X181940200Y-62560200D02*
X181533800Y-62966600D01*
X184861200Y-62560200D02*
X181940200Y-62560200D01*
X186283600Y-66167000D02*
X186283600Y-63982600D01*
X185674000Y-66776600D02*
X186283600Y-66167000D01*
X186283600Y-63982600D02*
X184861200Y-62560200D01*
%TD*%
%TA.AperFunction,Conductor*%
%TO.N,GND*%
G36*
X155408605Y-52527391D02*
G01*
X155420194Y-52528465D01*
X155819547Y-52584172D01*
X155830987Y-52586311D01*
X156223496Y-52678628D01*
X156234672Y-52681808D01*
X156425837Y-52745880D01*
X156616993Y-52809950D01*
X156627845Y-52814154D01*
X156996709Y-52977023D01*
X157007127Y-52982211D01*
X157359375Y-53178412D01*
X157369270Y-53184538D01*
X157701933Y-53412418D01*
X157711220Y-53419432D01*
X157945189Y-53613716D01*
X158021423Y-53677020D01*
X158030024Y-53684861D01*
X158315139Y-53969976D01*
X158322980Y-53978577D01*
X158580568Y-54288780D01*
X158587582Y-54298067D01*
X158815462Y-54630730D01*
X158821588Y-54640625D01*
X159017789Y-54992873D01*
X159022977Y-55003291D01*
X159185846Y-55372155D01*
X159190050Y-55383007D01*
X159318189Y-55765319D01*
X159321372Y-55776504D01*
X159383469Y-56040524D01*
X159413689Y-56169013D01*
X159415828Y-56180453D01*
X159471535Y-56579806D01*
X159472609Y-56591395D01*
X159489502Y-56956785D01*
X159488136Y-56981989D01*
X159487690Y-56984850D01*
X159487690Y-56984856D01*
X159486309Y-56993724D01*
X159487473Y-57002626D01*
X159487473Y-57002628D01*
X159490436Y-57025283D01*
X159491500Y-57041621D01*
X159491500Y-57950633D01*
X159490000Y-57970018D01*
X159487690Y-57984851D01*
X159487690Y-57984855D01*
X159486309Y-57993724D01*
X159487130Y-58000000D01*
X159486915Y-58000000D01*
X159487391Y-58007872D01*
X159487391Y-58007873D01*
X159500481Y-58224268D01*
X159505238Y-58302919D01*
X159559941Y-58601421D01*
X159650225Y-58891152D01*
X159774774Y-59167889D01*
X159931772Y-59427595D01*
X159934124Y-59430597D01*
X159934126Y-59430600D01*
X159980628Y-59489955D01*
X160118929Y-59666484D01*
X160333516Y-59881071D01*
X160572405Y-60068228D01*
X160749906Y-60175531D01*
X160828850Y-60223255D01*
X160828854Y-60223257D01*
X160832111Y-60225226D01*
X160970480Y-60287501D01*
X161105372Y-60348211D01*
X161105378Y-60348213D01*
X161108848Y-60349775D01*
X161398579Y-60440059D01*
X161697081Y-60494762D01*
X161700875Y-60494991D01*
X161700879Y-60494992D01*
X161833283Y-60503001D01*
X161969159Y-60511220D01*
X161982446Y-60512735D01*
X161987448Y-60513576D01*
X161993724Y-60513652D01*
X161995140Y-60513670D01*
X161995143Y-60513670D01*
X162000000Y-60513729D01*
X162027624Y-60509773D01*
X162045486Y-60508500D01*
X177946750Y-60508500D01*
X177967655Y-60510246D01*
X177982656Y-60512770D01*
X177982659Y-60512770D01*
X177987448Y-60513576D01*
X177993724Y-60513653D01*
X177995141Y-60513670D01*
X177995144Y-60513670D01*
X178000000Y-60513729D01*
X178004810Y-60513040D01*
X178007237Y-60512882D01*
X178012933Y-60512303D01*
X178299122Y-60494992D01*
X178299127Y-60494991D01*
X178302919Y-60494762D01*
X178601421Y-60440059D01*
X178891152Y-60349775D01*
X178894622Y-60348213D01*
X178894628Y-60348211D01*
X179029520Y-60287501D01*
X179167889Y-60225226D01*
X179171146Y-60223257D01*
X179171150Y-60223255D01*
X179250094Y-60175531D01*
X179427595Y-60068228D01*
X179666484Y-59881071D01*
X179881071Y-59666484D01*
X180019372Y-59489955D01*
X180065874Y-59430600D01*
X180065876Y-59430597D01*
X180068228Y-59427595D01*
X180225226Y-59167889D01*
X180349775Y-58891152D01*
X180440059Y-58601421D01*
X180494762Y-58302919D01*
X180499520Y-58224268D01*
X180511219Y-58030846D01*
X180512735Y-58017554D01*
X180513576Y-58012552D01*
X180513729Y-58000000D01*
X180509773Y-57972376D01*
X180508500Y-57954514D01*
X180508500Y-57132703D01*
X182890743Y-57132703D01*
X182928268Y-57417734D01*
X183004129Y-57695036D01*
X183005813Y-57698984D01*
X183114807Y-57954514D01*
X183116923Y-57959476D01*
X183264561Y-58206161D01*
X183444313Y-58430528D01*
X183652851Y-58628423D01*
X183886317Y-58796186D01*
X183890112Y-58798195D01*
X183890113Y-58798196D01*
X183911869Y-58809715D01*
X184140392Y-58930712D01*
X184410373Y-59029511D01*
X184691264Y-59090755D01*
X184719841Y-59093004D01*
X184914282Y-59108307D01*
X184914291Y-59108307D01*
X184916739Y-59108500D01*
X185072271Y-59108500D01*
X185074407Y-59108354D01*
X185074418Y-59108354D01*
X185282548Y-59094165D01*
X185282554Y-59094164D01*
X185286825Y-59093873D01*
X185291020Y-59093004D01*
X185291022Y-59093004D01*
X185427583Y-59064724D01*
X185568342Y-59035574D01*
X185839343Y-58939607D01*
X186094812Y-58807750D01*
X186098313Y-58805289D01*
X186098317Y-58805287D01*
X186212418Y-58725095D01*
X186330023Y-58642441D01*
X186540622Y-58446740D01*
X186722713Y-58224268D01*
X186872927Y-57979142D01*
X186988483Y-57715898D01*
X187067244Y-57439406D01*
X187107751Y-57154784D01*
X187107845Y-57136951D01*
X187109235Y-56871583D01*
X187109235Y-56871576D01*
X187109257Y-56867297D01*
X187071732Y-56582266D01*
X186995871Y-56304964D01*
X186937883Y-56169013D01*
X186884763Y-56044476D01*
X186884761Y-56044472D01*
X186883077Y-56040524D01*
X186735439Y-55793839D01*
X186555687Y-55569472D01*
X186347149Y-55371577D01*
X186157064Y-55234987D01*
X186117172Y-55206321D01*
X186117171Y-55206320D01*
X186113683Y-55203814D01*
X186091843Y-55192250D01*
X186068654Y-55179972D01*
X185859608Y-55069288D01*
X185679263Y-55003291D01*
X185593658Y-54971964D01*
X185593656Y-54971963D01*
X185589627Y-54970489D01*
X185308736Y-54909245D01*
X185277685Y-54906801D01*
X185085718Y-54891693D01*
X185085709Y-54891693D01*
X185083261Y-54891500D01*
X184927729Y-54891500D01*
X184925593Y-54891646D01*
X184925582Y-54891646D01*
X184717452Y-54905835D01*
X184717446Y-54905836D01*
X184713175Y-54906127D01*
X184708980Y-54906996D01*
X184708978Y-54906996D01*
X184572417Y-54935276D01*
X184431658Y-54964426D01*
X184160657Y-55060393D01*
X183905188Y-55192250D01*
X183901687Y-55194711D01*
X183901683Y-55194713D01*
X183787582Y-55274905D01*
X183669977Y-55357559D01*
X183459378Y-55553260D01*
X183277287Y-55775732D01*
X183127073Y-56020858D01*
X183125347Y-56024791D01*
X183125346Y-56024792D01*
X183059546Y-56174689D01*
X183011517Y-56284102D01*
X182932756Y-56560594D01*
X182892249Y-56845216D01*
X182892227Y-56849505D01*
X182892226Y-56849512D01*
X182891263Y-57033420D01*
X182890743Y-57132703D01*
X180508500Y-57132703D01*
X180508500Y-57053250D01*
X180510246Y-57032345D01*
X180512770Y-57017344D01*
X180512770Y-57017341D01*
X180513576Y-57012552D01*
X180513729Y-57000000D01*
X180511464Y-56984183D01*
X180510326Y-56960508D01*
X180527391Y-56591395D01*
X180528465Y-56579806D01*
X180584172Y-56180453D01*
X180586311Y-56169013D01*
X180616531Y-56040524D01*
X180678628Y-55776504D01*
X180681811Y-55765319D01*
X180809950Y-55383007D01*
X180814154Y-55372155D01*
X180977023Y-55003291D01*
X180982211Y-54992873D01*
X181178412Y-54640625D01*
X181184538Y-54630730D01*
X181412418Y-54298067D01*
X181419432Y-54288780D01*
X181677020Y-53978577D01*
X181684861Y-53969976D01*
X181969976Y-53684861D01*
X181978577Y-53677020D01*
X182054812Y-53613716D01*
X182288780Y-53419432D01*
X182298067Y-53412418D01*
X182630730Y-53184538D01*
X182640625Y-53178412D01*
X182992873Y-52982211D01*
X183003291Y-52977023D01*
X183372155Y-52814154D01*
X183383007Y-52809950D01*
X183574163Y-52745881D01*
X183765328Y-52681808D01*
X183776504Y-52678628D01*
X184169013Y-52586311D01*
X184180453Y-52584172D01*
X184579806Y-52528465D01*
X184591395Y-52527391D01*
X184994182Y-52508769D01*
X185005818Y-52508769D01*
X185408605Y-52527391D01*
X185420194Y-52528465D01*
X185819547Y-52584172D01*
X185830987Y-52586311D01*
X186223496Y-52678628D01*
X186234672Y-52681808D01*
X186425837Y-52745880D01*
X186616993Y-52809950D01*
X186627845Y-52814154D01*
X186996709Y-52977023D01*
X187007127Y-52982211D01*
X187359375Y-53178412D01*
X187369270Y-53184538D01*
X187701933Y-53412418D01*
X187711220Y-53419432D01*
X187945189Y-53613716D01*
X188021423Y-53677020D01*
X188030024Y-53684861D01*
X188315139Y-53969976D01*
X188322980Y-53978577D01*
X188580568Y-54288780D01*
X188587582Y-54298067D01*
X188815462Y-54630730D01*
X188821588Y-54640625D01*
X189017789Y-54992873D01*
X189022977Y-55003291D01*
X189185846Y-55372155D01*
X189190050Y-55383007D01*
X189318189Y-55765319D01*
X189321372Y-55776504D01*
X189383469Y-56040524D01*
X189413689Y-56169013D01*
X189415828Y-56180453D01*
X189471535Y-56579806D01*
X189472609Y-56591395D01*
X189489502Y-56956785D01*
X189488136Y-56981989D01*
X189487690Y-56984850D01*
X189487690Y-56984856D01*
X189486309Y-56993724D01*
X189487473Y-57002626D01*
X189487473Y-57002628D01*
X189490436Y-57025283D01*
X189491500Y-57041621D01*
X189491500Y-63704567D01*
X189471498Y-63772688D01*
X189417842Y-63819181D01*
X189347568Y-63829285D01*
X189282988Y-63799791D01*
X189252860Y-63760593D01*
X189251337Y-63756454D01*
X189179476Y-63640555D01*
X189152088Y-63596382D01*
X189152087Y-63596381D01*
X189148726Y-63590960D01*
X189014934Y-63449478D01*
X189002467Y-63440748D01*
X188860659Y-63341454D01*
X188855425Y-63337789D01*
X188767755Y-63299851D01*
X188682575Y-63262990D01*
X188682571Y-63262989D01*
X188676716Y-63260455D01*
X188670469Y-63259150D01*
X188670466Y-63259149D01*
X188490843Y-63221624D01*
X188490838Y-63221623D01*
X188486107Y-63220635D01*
X188479715Y-63220300D01*
X187536737Y-63220300D01*
X187467449Y-63227338D01*
X187398022Y-63234390D01*
X187398021Y-63234390D01*
X187391673Y-63235035D01*
X187352988Y-63247158D01*
X187211949Y-63291356D01*
X187211944Y-63291358D01*
X187205859Y-63293265D01*
X187130113Y-63335252D01*
X187041129Y-63384577D01*
X187041126Y-63384579D01*
X187035550Y-63387670D01*
X187030706Y-63391822D01*
X187030700Y-63391826D01*
X186900972Y-63503016D01*
X186836233Y-63532160D01*
X186766015Y-63521677D01*
X186738664Y-63504436D01*
X186731847Y-63498797D01*
X186723063Y-63490804D01*
X185384855Y-62152596D01*
X185376863Y-62143813D01*
X185376863Y-62143812D01*
X185372616Y-62137120D01*
X185320941Y-62088594D01*
X185318100Y-62085840D01*
X185297533Y-62065273D01*
X185294026Y-62062553D01*
X185285004Y-62054847D01*
X185251333Y-62023228D01*
X185244381Y-62019406D01*
X185232542Y-62012897D01*
X185216018Y-62002043D01*
X185205332Y-61993755D01*
X185199068Y-61988896D01*
X185191796Y-61985749D01*
X185191794Y-61985748D01*
X185156665Y-61970546D01*
X185146005Y-61965324D01*
X185112484Y-61946895D01*
X185112482Y-61946894D01*
X185105537Y-61943076D01*
X185084759Y-61937741D01*
X185066069Y-61931342D01*
X185046376Y-61922820D01*
X185000752Y-61915594D01*
X184989129Y-61913187D01*
X184954861Y-61904389D01*
X184944388Y-61901700D01*
X184922941Y-61901700D01*
X184903231Y-61900149D01*
X184889877Y-61898034D01*
X184882048Y-61896794D01*
X184836059Y-61901141D01*
X184824204Y-61901700D01*
X182022256Y-61901700D01*
X182010400Y-61901141D01*
X182010397Y-61901141D01*
X182002663Y-61899412D01*
X181947646Y-61901141D01*
X181931831Y-61901638D01*
X181927873Y-61901700D01*
X181898768Y-61901700D01*
X181894368Y-61902256D01*
X181882536Y-61903188D01*
X181836369Y-61904638D01*
X181815779Y-61910620D01*
X181796418Y-61914630D01*
X181789430Y-61915512D01*
X181782996Y-61916325D01*
X181782995Y-61916325D01*
X181775136Y-61917318D01*
X181767771Y-61920234D01*
X181767767Y-61920235D01*
X181732179Y-61934326D01*
X181720969Y-61938165D01*
X181676600Y-61951055D01*
X181658143Y-61961971D01*
X181640393Y-61970666D01*
X181620444Y-61978565D01*
X181614033Y-61983223D01*
X181614031Y-61983224D01*
X181583064Y-62005723D01*
X181573146Y-62012238D01*
X181533394Y-62035748D01*
X181532731Y-62034627D01*
X181474196Y-62057607D01*
X181463059Y-62058100D01*
X181438313Y-62058100D01*
X181431861Y-62059472D01*
X181431856Y-62059472D01*
X181344912Y-62077953D01*
X181251512Y-62097806D01*
X181245482Y-62100491D01*
X181245481Y-62100491D01*
X181083078Y-62172797D01*
X181083076Y-62172798D01*
X181077048Y-62175482D01*
X180922547Y-62287734D01*
X180794760Y-62429656D01*
X180699273Y-62595044D01*
X180640258Y-62776672D01*
X180620296Y-62966600D01*
X180620986Y-62973165D01*
X180635624Y-63112434D01*
X180640258Y-63156528D01*
X180699273Y-63338156D01*
X180702576Y-63343878D01*
X180702577Y-63343879D01*
X180710494Y-63357591D01*
X180794760Y-63503544D01*
X180799178Y-63508451D01*
X180799179Y-63508452D01*
X180918125Y-63640555D01*
X180922547Y-63645466D01*
X180979378Y-63686756D01*
X181067839Y-63751027D01*
X181077048Y-63757718D01*
X181083076Y-63760402D01*
X181083078Y-63760403D01*
X181237791Y-63829285D01*
X181251512Y-63835394D01*
X181330314Y-63852144D01*
X181431856Y-63873728D01*
X181431861Y-63873728D01*
X181438313Y-63875100D01*
X181629287Y-63875100D01*
X181635739Y-63873728D01*
X181635744Y-63873728D01*
X181737286Y-63852144D01*
X181816088Y-63835394D01*
X181829809Y-63829285D01*
X181984522Y-63760403D01*
X181984524Y-63760402D01*
X181990552Y-63757718D01*
X181999762Y-63751027D01*
X182088222Y-63686756D01*
X182145053Y-63645466D01*
X182230970Y-63550045D01*
X182291415Y-63512807D01*
X182300257Y-63512975D01*
X182305933Y-63449034D01*
X182314098Y-63432083D01*
X182365023Y-63343879D01*
X182365024Y-63343878D01*
X182368327Y-63338156D01*
X182378852Y-63305762D01*
X182418926Y-63247158D01*
X182484323Y-63219521D01*
X182498685Y-63218700D01*
X182572068Y-63218700D01*
X182640189Y-63238702D01*
X182686682Y-63292358D01*
X182696786Y-63362632D01*
X182667292Y-63427212D01*
X182654066Y-63440368D01*
X182647711Y-63445815D01*
X182567702Y-63514391D01*
X182563791Y-63519433D01*
X182563790Y-63519434D01*
X182522776Y-63572309D01*
X182465220Y-63613876D01*
X182447911Y-63614816D01*
X182449641Y-63618803D01*
X182437659Y-63689987D01*
X182365203Y-63837236D01*
X182365200Y-63837244D01*
X182362382Y-63842971D01*
X182360773Y-63849149D01*
X182360772Y-63849151D01*
X182359993Y-63852144D01*
X182313298Y-64031407D01*
X182312964Y-64037786D01*
X182305402Y-64182082D01*
X182303107Y-64225864D01*
X182332225Y-64418399D01*
X182334428Y-64424385D01*
X182334429Y-64424391D01*
X182397260Y-64595160D01*
X182397262Y-64595165D01*
X182399463Y-64601146D01*
X182502074Y-64766640D01*
X182635866Y-64908122D01*
X182641096Y-64911784D01*
X182641097Y-64911785D01*
X182724137Y-64969930D01*
X182795375Y-65019811D01*
X182801238Y-65022348D01*
X182968225Y-65094610D01*
X182968229Y-65094611D01*
X182974084Y-65097145D01*
X182980331Y-65098450D01*
X182980334Y-65098451D01*
X183159957Y-65135976D01*
X183159962Y-65135977D01*
X183164693Y-65136965D01*
X183171085Y-65137300D01*
X183438182Y-65137300D01*
X183506303Y-65157302D01*
X183552796Y-65210958D01*
X183562900Y-65281232D01*
X183556881Y-65305566D01*
X183540889Y-65350479D01*
X183537945Y-65358746D01*
X183496251Y-65416210D01*
X183431104Y-65441920D01*
X183401259Y-65444741D01*
X183389404Y-65445300D01*
X182328024Y-65445300D01*
X182259903Y-65425298D01*
X182253963Y-65421236D01*
X182253709Y-65421051D01*
X182201926Y-65383429D01*
X182109894Y-65316563D01*
X182109893Y-65316562D01*
X182104552Y-65312682D01*
X182098524Y-65309998D01*
X182098522Y-65309997D01*
X181936119Y-65237691D01*
X181936118Y-65237691D01*
X181930088Y-65235006D01*
X181816952Y-65210958D01*
X181749744Y-65196672D01*
X181749739Y-65196672D01*
X181743287Y-65195300D01*
X181552313Y-65195300D01*
X181545861Y-65196672D01*
X181545856Y-65196672D01*
X181478648Y-65210958D01*
X181365512Y-65235006D01*
X181359482Y-65237691D01*
X181359481Y-65237691D01*
X181197078Y-65309997D01*
X181197076Y-65309998D01*
X181191048Y-65312682D01*
X181036547Y-65424934D01*
X180908760Y-65566856D01*
X180813273Y-65732244D01*
X180754258Y-65913872D01*
X180753568Y-65920433D01*
X180753568Y-65920435D01*
X180741890Y-66031548D01*
X180734296Y-66103800D01*
X180734986Y-66110365D01*
X180743953Y-66195677D01*
X180754258Y-66293728D01*
X180813273Y-66475356D01*
X180908760Y-66640744D01*
X180913178Y-66645651D01*
X180913179Y-66645652D01*
X180942680Y-66678416D01*
X181036547Y-66782666D01*
X181191048Y-66894918D01*
X181197076Y-66897602D01*
X181197078Y-66897603D01*
X181337144Y-66959964D01*
X181365512Y-66972594D01*
X181458913Y-66992447D01*
X181545856Y-67010928D01*
X181545861Y-67010928D01*
X181552313Y-67012300D01*
X181743287Y-67012300D01*
X181749739Y-67010928D01*
X181749744Y-67010928D01*
X181836687Y-66992447D01*
X181930088Y-66972594D01*
X181958456Y-66959964D01*
X182098522Y-66897603D01*
X182098524Y-66897602D01*
X182104552Y-66894918D01*
X182179020Y-66840814D01*
X182240093Y-66796441D01*
X182253963Y-66786364D01*
X182320831Y-66762506D01*
X182328024Y-66762300D01*
X183101450Y-66762300D01*
X183169571Y-66782302D01*
X183190545Y-66799205D01*
X184400830Y-68009490D01*
X184434856Y-68071802D01*
X184437044Y-68085411D01*
X184450258Y-68211128D01*
X184509273Y-68392756D01*
X184604760Y-68558144D01*
X184609178Y-68563051D01*
X184609179Y-68563052D01*
X184636389Y-68593272D01*
X184732547Y-68700066D01*
X184739099Y-68704826D01*
X184856007Y-68789765D01*
X184887048Y-68812318D01*
X184893076Y-68815002D01*
X184893078Y-68815003D01*
X185055481Y-68887309D01*
X185061512Y-68889994D01*
X185154912Y-68909847D01*
X185241856Y-68928328D01*
X185241861Y-68928328D01*
X185248313Y-68929700D01*
X185439287Y-68929700D01*
X185445739Y-68928328D01*
X185445744Y-68928328D01*
X185532688Y-68909847D01*
X185626088Y-68889994D01*
X185632119Y-68887309D01*
X185794522Y-68815003D01*
X185794524Y-68815002D01*
X185800552Y-68812318D01*
X185831594Y-68789765D01*
X185948501Y-68704826D01*
X185955053Y-68700066D01*
X186051211Y-68593272D01*
X186078421Y-68563052D01*
X186078422Y-68563051D01*
X186082840Y-68558144D01*
X186178327Y-68392756D01*
X186237342Y-68211128D01*
X186241239Y-68174055D01*
X186256614Y-68027765D01*
X186257304Y-68021200D01*
X186254244Y-67992082D01*
X186238032Y-67837835D01*
X186238032Y-67837833D01*
X186237342Y-67831272D01*
X186178327Y-67649644D01*
X186179275Y-67649336D01*
X186170632Y-67584888D01*
X186200736Y-67520590D01*
X186221114Y-67502066D01*
X186279905Y-67459353D01*
X186279913Y-67459346D01*
X186285253Y-67455466D01*
X186413040Y-67313544D01*
X186508527Y-67148156D01*
X186552670Y-67012300D01*
X186565502Y-66972807D01*
X186565502Y-66972805D01*
X186567542Y-66966528D01*
X186580755Y-66840813D01*
X186607768Y-66775158D01*
X186616970Y-66764890D01*
X186691205Y-66690655D01*
X186699985Y-66682665D01*
X186699987Y-66682663D01*
X186706680Y-66678416D01*
X186755205Y-66626742D01*
X186757959Y-66623901D01*
X186778527Y-66603333D01*
X186781247Y-66599826D01*
X186788953Y-66590804D01*
X186820572Y-66557133D01*
X186829260Y-66541330D01*
X186830903Y-66538342D01*
X186841757Y-66521818D01*
X186850045Y-66511132D01*
X186854904Y-66504868D01*
X186858052Y-66497594D01*
X186873254Y-66462465D01*
X186878476Y-66451805D01*
X186896905Y-66418284D01*
X186896906Y-66418282D01*
X186900724Y-66411337D01*
X186906059Y-66390559D01*
X186912458Y-66371869D01*
X186920980Y-66352176D01*
X186928206Y-66306552D01*
X186930613Y-66294929D01*
X186940128Y-66257868D01*
X186942100Y-66250188D01*
X186942100Y-66228741D01*
X186943651Y-66209031D01*
X186945766Y-66195677D01*
X186947006Y-66187848D01*
X186942659Y-66141859D01*
X186942100Y-66130004D01*
X186942100Y-65136645D01*
X186962102Y-65068524D01*
X187015758Y-65022031D01*
X187086032Y-65011927D01*
X187118140Y-65021008D01*
X187288225Y-65094610D01*
X187288229Y-65094611D01*
X187294084Y-65097145D01*
X187300331Y-65098450D01*
X187300334Y-65098451D01*
X187479957Y-65135976D01*
X187479962Y-65135977D01*
X187484693Y-65136965D01*
X187491085Y-65137300D01*
X188434063Y-65137300D01*
X188503351Y-65130262D01*
X188572778Y-65123210D01*
X188572779Y-65123210D01*
X188579127Y-65122565D01*
X188660243Y-65097145D01*
X188758851Y-65066244D01*
X188758856Y-65066242D01*
X188764941Y-65064335D01*
X188864790Y-65008987D01*
X188929671Y-64973023D01*
X188929674Y-64973021D01*
X188935250Y-64969930D01*
X188940091Y-64965781D01*
X188940095Y-64965778D01*
X189078255Y-64847360D01*
X189083098Y-64843209D01*
X189202446Y-64689347D01*
X189205266Y-64683617D01*
X189205268Y-64683613D01*
X189252446Y-64587736D01*
X189300468Y-64535445D01*
X189369138Y-64517419D01*
X189436653Y-64539379D01*
X189481577Y-64594355D01*
X189491500Y-64643366D01*
X189491500Y-72354567D01*
X189471498Y-72422688D01*
X189417842Y-72469181D01*
X189347568Y-72479285D01*
X189282988Y-72449791D01*
X189252860Y-72410593D01*
X189251337Y-72406454D01*
X189193521Y-72313206D01*
X189152088Y-72246382D01*
X189152087Y-72246381D01*
X189148726Y-72240960D01*
X189014934Y-72099478D01*
X188855425Y-71987789D01*
X188779164Y-71954788D01*
X188682575Y-71912990D01*
X188682571Y-71912989D01*
X188676716Y-71910455D01*
X188670469Y-71909150D01*
X188670466Y-71909149D01*
X188490843Y-71871624D01*
X188490838Y-71871623D01*
X188486107Y-71870635D01*
X188479715Y-71870300D01*
X187536737Y-71870300D01*
X187467449Y-71877338D01*
X187398022Y-71884390D01*
X187398021Y-71884390D01*
X187391673Y-71885035D01*
X187348077Y-71898697D01*
X187211949Y-71941356D01*
X187211944Y-71941358D01*
X187205859Y-71943265D01*
X187130113Y-71985252D01*
X187041129Y-72034577D01*
X187041126Y-72034579D01*
X187035550Y-72037670D01*
X187030709Y-72041819D01*
X187030705Y-72041822D01*
X186916197Y-72139968D01*
X186851458Y-72169112D01*
X186834199Y-72170300D01*
X185116171Y-72170300D01*
X185048050Y-72150298D01*
X185024623Y-72130873D01*
X184999321Y-72104117D01*
X184999319Y-72104115D01*
X184994934Y-72099478D01*
X184968350Y-72080864D01*
X184924023Y-72025408D01*
X184916714Y-71954788D01*
X184940018Y-71903955D01*
X184939482Y-71903615D01*
X184941973Y-71899691D01*
X184941975Y-71899687D01*
X184951274Y-71885035D01*
X185032894Y-71756420D01*
X185036673Y-71750466D01*
X185053327Y-71703695D01*
X185095157Y-71586225D01*
X185095158Y-71586220D01*
X185097519Y-71579590D01*
X185118996Y-71399480D01*
X185100036Y-71219088D01*
X185041582Y-71047379D01*
X184946538Y-70892888D01*
X184941607Y-70887853D01*
X184941605Y-70887850D01*
X184824557Y-70768325D01*
X184824556Y-70768324D01*
X184819629Y-70763293D01*
X184667162Y-70665035D01*
X184660542Y-70662626D01*
X184660539Y-70662624D01*
X184503334Y-70605406D01*
X184503333Y-70605406D01*
X184496715Y-70602997D01*
X184356631Y-70585300D01*
X184259790Y-70585300D01*
X184125145Y-70600403D01*
X184118492Y-70602720D01*
X184118491Y-70602720D01*
X183960506Y-70657736D01*
X183960503Y-70657738D01*
X183953848Y-70660055D01*
X183947869Y-70663791D01*
X183939767Y-70668854D01*
X183800024Y-70756174D01*
X183795028Y-70761135D01*
X183795027Y-70761136D01*
X183676315Y-70879022D01*
X183676312Y-70879026D01*
X183671318Y-70883985D01*
X183574127Y-71037134D01*
X183571762Y-71043776D01*
X183515643Y-71201375D01*
X183515642Y-71201380D01*
X183513281Y-71208010D01*
X183491804Y-71388120D01*
X183510764Y-71568512D01*
X183516794Y-71586225D01*
X183556784Y-71703695D01*
X183559802Y-71774627D01*
X183523992Y-71835931D01*
X183460723Y-71868142D01*
X183437506Y-71870300D01*
X183216737Y-71870300D01*
X183147449Y-71877338D01*
X183078022Y-71884390D01*
X183078021Y-71884390D01*
X183071673Y-71885035D01*
X183028077Y-71898697D01*
X182891949Y-71941356D01*
X182891944Y-71941358D01*
X182885859Y-71943265D01*
X182810113Y-71985252D01*
X182721129Y-72034577D01*
X182721126Y-72034579D01*
X182715550Y-72037670D01*
X182710709Y-72041819D01*
X182710705Y-72041822D01*
X182578186Y-72155405D01*
X182567702Y-72164391D01*
X182448354Y-72318253D01*
X182445538Y-72323976D01*
X182445536Y-72323979D01*
X182383629Y-72449791D01*
X182362382Y-72492971D01*
X182360773Y-72499149D01*
X182360772Y-72499151D01*
X182323129Y-72643667D01*
X182313298Y-72681407D01*
X182303107Y-72875864D01*
X182332225Y-73068399D01*
X182334428Y-73074385D01*
X182334429Y-73074391D01*
X182397260Y-73245160D01*
X182397262Y-73245165D01*
X182399463Y-73251146D01*
X182425641Y-73293366D01*
X182482551Y-73385152D01*
X182502074Y-73416640D01*
X182635866Y-73558122D01*
X182664953Y-73578489D01*
X182680130Y-73589116D01*
X182724458Y-73644573D01*
X182731767Y-73715192D01*
X182727692Y-73731265D01*
X182672258Y-73901872D01*
X182652296Y-74091800D01*
X182652986Y-74098365D01*
X182667579Y-74237206D01*
X182672258Y-74281728D01*
X182731273Y-74463356D01*
X182826760Y-74628744D01*
X182831178Y-74633651D01*
X182831179Y-74633652D01*
X182912303Y-74723749D01*
X182954547Y-74770666D01*
X183109048Y-74882918D01*
X183115076Y-74885602D01*
X183115078Y-74885603D01*
X183258594Y-74949500D01*
X183283512Y-74960594D01*
X183401710Y-74985718D01*
X183417400Y-74989053D01*
X183479873Y-75022782D01*
X183514195Y-75084931D01*
X183509467Y-75155770D01*
X183467191Y-75212808D01*
X183400790Y-75237935D01*
X183391203Y-75238300D01*
X180604771Y-75238300D01*
X180536650Y-75218298D01*
X180515676Y-75201395D01*
X178104370Y-72790089D01*
X178091984Y-72775677D01*
X178083451Y-72764082D01*
X178083446Y-72764077D01*
X178079108Y-72758182D01*
X178073530Y-72753443D01*
X178073527Y-72753440D01*
X178038832Y-72723965D01*
X178031316Y-72717035D01*
X178025621Y-72711340D01*
X178019480Y-72706482D01*
X178003349Y-72693719D01*
X177999945Y-72690928D01*
X177949897Y-72648409D01*
X177949895Y-72648408D01*
X177944315Y-72643667D01*
X177937799Y-72640339D01*
X177932750Y-72636972D01*
X177927621Y-72633805D01*
X177921884Y-72629266D01*
X177855725Y-72598345D01*
X177851825Y-72596439D01*
X177786792Y-72563231D01*
X177779684Y-72561492D01*
X177774041Y-72559393D01*
X177768278Y-72557476D01*
X177761650Y-72554378D01*
X177690183Y-72539513D01*
X177685899Y-72538543D01*
X177614990Y-72521192D01*
X177609388Y-72520844D01*
X177609385Y-72520844D01*
X177603836Y-72520500D01*
X177603838Y-72520464D01*
X177599845Y-72520225D01*
X177595653Y-72519851D01*
X177588485Y-72518360D01*
X177522275Y-72520151D01*
X177511079Y-72520454D01*
X177507672Y-72520500D01*
X164982187Y-72520500D01*
X164908128Y-72496437D01*
X164901698Y-72491765D01*
X164901691Y-72491761D01*
X164896352Y-72487882D01*
X164890324Y-72485198D01*
X164890322Y-72485197D01*
X164727919Y-72412891D01*
X164727918Y-72412891D01*
X164721888Y-72410206D01*
X164628487Y-72390353D01*
X164541544Y-72371872D01*
X164541539Y-72371872D01*
X164535087Y-72370500D01*
X164526150Y-72370500D01*
X164524849Y-72370118D01*
X164521918Y-72369810D01*
X164521974Y-72369274D01*
X164458029Y-72350498D01*
X164411536Y-72296842D01*
X164401432Y-72226568D01*
X164430926Y-72161988D01*
X164437055Y-72155405D01*
X166330455Y-70262005D01*
X166392767Y-70227979D01*
X166419550Y-70225100D01*
X166440087Y-70225100D01*
X166446539Y-70223728D01*
X166446544Y-70223728D01*
X166536644Y-70204576D01*
X166626888Y-70185394D01*
X166632919Y-70182709D01*
X166795322Y-70110403D01*
X166795324Y-70110402D01*
X166801352Y-70107718D01*
X166851582Y-70071224D01*
X166904423Y-70032832D01*
X166955853Y-69995466D01*
X167030765Y-69912268D01*
X167079221Y-69858452D01*
X167079222Y-69858451D01*
X167083640Y-69853544D01*
X167149562Y-69739364D01*
X167175823Y-69693879D01*
X167175824Y-69693878D01*
X167179127Y-69688156D01*
X167238142Y-69506528D01*
X167242427Y-69465764D01*
X167257414Y-69323165D01*
X167258104Y-69316600D01*
X167238142Y-69126672D01*
X167196020Y-68997035D01*
X167193992Y-68926069D01*
X167230655Y-68865271D01*
X167294367Y-68833946D01*
X167315853Y-68832100D01*
X172954176Y-68832100D01*
X173022297Y-68852102D01*
X173028234Y-68856162D01*
X173177648Y-68964718D01*
X173183676Y-68967402D01*
X173183678Y-68967403D01*
X173346081Y-69039709D01*
X173352112Y-69042394D01*
X173445512Y-69062247D01*
X173532456Y-69080728D01*
X173532461Y-69080728D01*
X173538913Y-69082100D01*
X173729887Y-69082100D01*
X173736339Y-69080728D01*
X173736344Y-69080728D01*
X173823288Y-69062247D01*
X173916688Y-69042394D01*
X173922719Y-69039709D01*
X174085122Y-68967403D01*
X174085124Y-68967402D01*
X174091152Y-68964718D01*
X174245653Y-68852466D01*
X174261398Y-68834979D01*
X174369021Y-68715452D01*
X174369022Y-68715451D01*
X174373440Y-68710544D01*
X174458595Y-68563052D01*
X174465623Y-68550879D01*
X174465624Y-68550878D01*
X174468927Y-68545156D01*
X174527942Y-68363528D01*
X174534045Y-68305467D01*
X174547214Y-68180165D01*
X174547904Y-68173600D01*
X174542823Y-68125255D01*
X174528632Y-67990235D01*
X174528632Y-67990233D01*
X174527942Y-67983672D01*
X174468927Y-67802044D01*
X174373440Y-67636656D01*
X174306438Y-67562242D01*
X174250075Y-67499645D01*
X174250074Y-67499644D01*
X174245653Y-67494734D01*
X174091152Y-67382482D01*
X174085124Y-67379798D01*
X174085122Y-67379797D01*
X173922719Y-67307491D01*
X173922718Y-67307491D01*
X173916688Y-67304806D01*
X173823288Y-67284953D01*
X173736344Y-67266472D01*
X173736339Y-67266472D01*
X173729887Y-67265100D01*
X173538913Y-67265100D01*
X173532461Y-67266472D01*
X173532456Y-67266472D01*
X173445512Y-67284953D01*
X173352112Y-67304806D01*
X173346082Y-67307491D01*
X173346081Y-67307491D01*
X173183678Y-67379797D01*
X173183676Y-67379798D01*
X173177648Y-67382482D01*
X173028492Y-67490851D01*
X173028237Y-67491036D01*
X172961369Y-67514894D01*
X172954176Y-67515100D01*
X166397681Y-67515100D01*
X166329560Y-67495098D01*
X166283067Y-67441442D01*
X166272963Y-67371168D01*
X166302457Y-67306588D01*
X166323620Y-67287164D01*
X166366309Y-67256149D01*
X166366311Y-67256147D01*
X166371653Y-67252266D01*
X166499440Y-67110344D01*
X166580520Y-66969909D01*
X166591623Y-66950679D01*
X166591624Y-66950678D01*
X166594927Y-66944956D01*
X166653942Y-66763328D01*
X166668298Y-66626743D01*
X166673214Y-66579965D01*
X166673904Y-66573400D01*
X166668483Y-66521818D01*
X166654632Y-66390035D01*
X166654632Y-66390033D01*
X166653942Y-66383472D01*
X166594927Y-66201844D01*
X166591367Y-66195677D01*
X166502741Y-66042174D01*
X166499440Y-66036456D01*
X166440023Y-65970466D01*
X166376075Y-65899445D01*
X166376074Y-65899444D01*
X166371653Y-65894534D01*
X166251633Y-65807334D01*
X166222494Y-65786163D01*
X166222493Y-65786162D01*
X166217152Y-65782282D01*
X166211124Y-65779598D01*
X166211122Y-65779597D01*
X166048719Y-65707291D01*
X166048718Y-65707291D01*
X166042688Y-65704606D01*
X165949288Y-65684753D01*
X165862344Y-65666272D01*
X165862339Y-65666272D01*
X165855887Y-65664900D01*
X165835350Y-65664900D01*
X165767229Y-65644898D01*
X165746255Y-65627995D01*
X165103464Y-64985204D01*
X165069438Y-64922892D01*
X165074503Y-64852077D01*
X165117050Y-64795241D01*
X165183570Y-64770430D01*
X165243808Y-64781002D01*
X165392863Y-64847365D01*
X165401912Y-64851394D01*
X165495312Y-64871247D01*
X165582256Y-64889728D01*
X165582261Y-64889728D01*
X165588713Y-64891100D01*
X165779687Y-64891100D01*
X165786139Y-64889728D01*
X165786144Y-64889728D01*
X165873088Y-64871247D01*
X165966488Y-64851394D01*
X165972519Y-64848709D01*
X166134922Y-64776403D01*
X166134924Y-64776402D01*
X166140952Y-64773718D01*
X166295453Y-64661466D01*
X166423240Y-64519544D01*
X166518727Y-64354156D01*
X166577742Y-64172528D01*
X166582030Y-64131736D01*
X166597014Y-63989165D01*
X166597704Y-63982600D01*
X166591419Y-63922800D01*
X166578432Y-63799235D01*
X166578432Y-63799233D01*
X166577742Y-63792672D01*
X166518727Y-63611044D01*
X166507132Y-63590960D01*
X166453360Y-63497826D01*
X166423240Y-63445656D01*
X166341529Y-63354906D01*
X166299875Y-63308645D01*
X166299874Y-63308644D01*
X166295453Y-63303734D01*
X166180733Y-63220385D01*
X166146294Y-63195363D01*
X166146293Y-63195362D01*
X166140952Y-63191482D01*
X166134924Y-63188798D01*
X166134922Y-63188797D01*
X165972519Y-63116491D01*
X165972518Y-63116491D01*
X165966488Y-63113806D01*
X165873088Y-63093953D01*
X165786144Y-63075472D01*
X165786139Y-63075472D01*
X165779687Y-63074100D01*
X165588713Y-63074100D01*
X165582261Y-63075472D01*
X165582256Y-63075472D01*
X165495312Y-63093953D01*
X165401912Y-63113806D01*
X165395882Y-63116491D01*
X165395881Y-63116491D01*
X165233478Y-63188797D01*
X165233476Y-63188798D01*
X165227448Y-63191482D01*
X165222107Y-63195362D01*
X165222106Y-63195363D01*
X165150817Y-63247158D01*
X165078292Y-63299851D01*
X165078037Y-63300036D01*
X165011169Y-63323894D01*
X165003976Y-63324100D01*
X161257559Y-63324100D01*
X161245703Y-63323541D01*
X161237963Y-63321811D01*
X161230037Y-63322060D01*
X161230036Y-63322060D01*
X161167111Y-63324038D01*
X161163153Y-63324100D01*
X161134068Y-63324100D01*
X161130137Y-63324597D01*
X161130130Y-63324597D01*
X161129679Y-63324654D01*
X161117842Y-63325587D01*
X161099027Y-63326178D01*
X161068874Y-63323487D01*
X161036344Y-63316572D01*
X161036340Y-63316572D01*
X161029887Y-63315200D01*
X160838913Y-63315200D01*
X160832461Y-63316572D01*
X160832456Y-63316572D01*
X160760468Y-63331874D01*
X160652112Y-63354906D01*
X160646082Y-63357591D01*
X160646081Y-63357591D01*
X160483678Y-63429897D01*
X160483676Y-63429898D01*
X160477648Y-63432582D01*
X160472307Y-63436462D01*
X160472306Y-63436463D01*
X160459653Y-63445656D01*
X160323147Y-63544834D01*
X160318726Y-63549744D01*
X160318725Y-63549745D01*
X160232538Y-63645466D01*
X160195360Y-63686756D01*
X160192059Y-63692474D01*
X160108752Y-63836766D01*
X160099873Y-63852144D01*
X160040858Y-64033772D01*
X160040168Y-64040333D01*
X160040168Y-64040335D01*
X160023190Y-64201871D01*
X159996177Y-64267527D01*
X159937955Y-64308157D01*
X159897880Y-64314700D01*
X158744424Y-64314700D01*
X158676303Y-64294698D01*
X158670363Y-64290636D01*
X158670109Y-64290451D01*
X158613356Y-64249218D01*
X158526294Y-64185963D01*
X158526293Y-64185962D01*
X158520952Y-64182082D01*
X158514924Y-64179398D01*
X158514922Y-64179397D01*
X158352519Y-64107091D01*
X158352518Y-64107091D01*
X158346488Y-64104406D01*
X158253088Y-64084553D01*
X158166144Y-64066072D01*
X158166139Y-64066072D01*
X158159687Y-64064700D01*
X157968713Y-64064700D01*
X157962261Y-64066072D01*
X157962256Y-64066072D01*
X157875312Y-64084553D01*
X157781912Y-64104406D01*
X157775882Y-64107091D01*
X157775881Y-64107091D01*
X157613478Y-64179397D01*
X157613476Y-64179398D01*
X157607448Y-64182082D01*
X157452947Y-64294334D01*
X157448526Y-64299244D01*
X157448525Y-64299245D01*
X157346924Y-64412085D01*
X157325160Y-64436256D01*
X157321859Y-64441974D01*
X157233417Y-64595160D01*
X157229673Y-64601644D01*
X157170658Y-64783272D01*
X157169968Y-64789833D01*
X157169968Y-64789835D01*
X157151476Y-64965778D01*
X157150696Y-64973200D01*
X157151386Y-64979765D01*
X157167875Y-65136645D01*
X157170658Y-65163128D01*
X157229673Y-65344756D01*
X157325160Y-65510144D01*
X157452947Y-65652066D01*
X157607448Y-65764318D01*
X157613476Y-65767002D01*
X157613478Y-65767003D01*
X157775881Y-65839309D01*
X157781912Y-65841994D01*
X157875312Y-65861847D01*
X157962256Y-65880328D01*
X157962261Y-65880328D01*
X157968713Y-65881700D01*
X158159687Y-65881700D01*
X158166139Y-65880328D01*
X158166144Y-65880328D01*
X158253088Y-65861847D01*
X158346488Y-65841994D01*
X158352519Y-65839309D01*
X158514922Y-65767003D01*
X158514924Y-65767002D01*
X158520952Y-65764318D01*
X158556448Y-65738529D01*
X158655900Y-65666272D01*
X158670363Y-65655764D01*
X158737231Y-65631906D01*
X158744424Y-65631700D01*
X163835250Y-65631700D01*
X163903371Y-65651702D01*
X163924345Y-65668605D01*
X164817430Y-66561690D01*
X164851456Y-66624002D01*
X164853644Y-66637611D01*
X164866858Y-66763328D01*
X164868898Y-66769605D01*
X164868898Y-66769607D01*
X164873023Y-66782302D01*
X164925873Y-66944956D01*
X164929176Y-66950678D01*
X164929177Y-66950679D01*
X164940280Y-66969909D01*
X165021360Y-67110344D01*
X165149147Y-67252266D01*
X165154489Y-67256147D01*
X165154491Y-67256149D01*
X165197180Y-67287164D01*
X165240534Y-67343386D01*
X165246609Y-67414122D01*
X165213478Y-67476914D01*
X165151658Y-67511825D01*
X165123119Y-67515100D01*
X162489660Y-67515100D01*
X162477803Y-67514541D01*
X162470063Y-67512811D01*
X162462138Y-67513060D01*
X162462137Y-67513060D01*
X162399199Y-67515038D01*
X162395241Y-67515100D01*
X162366168Y-67515100D01*
X162362234Y-67515597D01*
X162362232Y-67515597D01*
X162361789Y-67515653D01*
X162349954Y-67516585D01*
X162317164Y-67517616D01*
X162311689Y-67517788D01*
X162311688Y-67517788D01*
X162303769Y-67518037D01*
X162284044Y-67523768D01*
X162283171Y-67524021D01*
X162263818Y-67528029D01*
X162260343Y-67528468D01*
X162242536Y-67530718D01*
X162235168Y-67533635D01*
X162235165Y-67533636D01*
X162199582Y-67547725D01*
X162188347Y-67551571D01*
X162151616Y-67562242D01*
X162151613Y-67562243D01*
X162144000Y-67564455D01*
X162125535Y-67575375D01*
X162107795Y-67584066D01*
X162087844Y-67591965D01*
X162050474Y-67619116D01*
X162040552Y-67625633D01*
X162007623Y-67645107D01*
X162007619Y-67645110D01*
X162000793Y-67649147D01*
X161985629Y-67664311D01*
X161970596Y-67677151D01*
X161953243Y-67689759D01*
X161923798Y-67725352D01*
X161915808Y-67734132D01*
X160821545Y-68828395D01*
X160759233Y-68862421D01*
X160732450Y-68865300D01*
X160711913Y-68865300D01*
X160705461Y-68866672D01*
X160705456Y-68866672D01*
X160618513Y-68885153D01*
X160525112Y-68905006D01*
X160519082Y-68907691D01*
X160519081Y-68907691D01*
X160356678Y-68979997D01*
X160356676Y-68979998D01*
X160350648Y-68982682D01*
X160196147Y-69094934D01*
X160068360Y-69236856D01*
X159972873Y-69402244D01*
X159913858Y-69583872D01*
X159893896Y-69773800D01*
X159894586Y-69780365D01*
X159905590Y-69885058D01*
X159913858Y-69963728D01*
X159972873Y-70145356D01*
X159976176Y-70151078D01*
X159976177Y-70151079D01*
X159994439Y-70182709D01*
X160068360Y-70310744D01*
X160196147Y-70452666D01*
X160295243Y-70524664D01*
X160301432Y-70529160D01*
X160350648Y-70564918D01*
X160356676Y-70567602D01*
X160356678Y-70567603D01*
X160519081Y-70639909D01*
X160525112Y-70642594D01*
X160607259Y-70660055D01*
X160705456Y-70680928D01*
X160705461Y-70680928D01*
X160711913Y-70682300D01*
X160902887Y-70682300D01*
X160909339Y-70680928D01*
X160909344Y-70680928D01*
X161007541Y-70660055D01*
X161089688Y-70642594D01*
X161095719Y-70639909D01*
X161258122Y-70567603D01*
X161258124Y-70567602D01*
X161264152Y-70564918D01*
X161313369Y-70529160D01*
X161319557Y-70524664D01*
X161418653Y-70452666D01*
X161546440Y-70310744D01*
X161620361Y-70182709D01*
X161638623Y-70151079D01*
X161638624Y-70151078D01*
X161641927Y-70145356D01*
X161678489Y-70032832D01*
X161698902Y-69970007D01*
X161698902Y-69970005D01*
X161700942Y-69963728D01*
X161714155Y-69838013D01*
X161741168Y-69772358D01*
X161750370Y-69762090D01*
X162643455Y-68869005D01*
X162705767Y-68834979D01*
X162732550Y-68832100D01*
X165373347Y-68832100D01*
X165441468Y-68852102D01*
X165487961Y-68905758D01*
X165498065Y-68976032D01*
X165493182Y-68997030D01*
X165451058Y-69126672D01*
X165450368Y-69133235D01*
X165450368Y-69133236D01*
X165437845Y-69252386D01*
X165410832Y-69318042D01*
X165401630Y-69328310D01*
X161847595Y-72882345D01*
X161838815Y-72890335D01*
X161838813Y-72890337D01*
X161832120Y-72894584D01*
X161826694Y-72900362D01*
X161826693Y-72900363D01*
X161783596Y-72946257D01*
X161780841Y-72949099D01*
X161760273Y-72969667D01*
X161757556Y-72973170D01*
X161749848Y-72982195D01*
X161718228Y-73015867D01*
X161714407Y-73022818D01*
X161714406Y-73022819D01*
X161707897Y-73034658D01*
X161697043Y-73051182D01*
X161689218Y-73061271D01*
X161683896Y-73068132D01*
X161680749Y-73075404D01*
X161680748Y-73075406D01*
X161665546Y-73110535D01*
X161660324Y-73121195D01*
X161638076Y-73161663D01*
X161632741Y-73182441D01*
X161626342Y-73201131D01*
X161617820Y-73220824D01*
X161614885Y-73239354D01*
X161610594Y-73266448D01*
X161608187Y-73278071D01*
X161604260Y-73293366D01*
X161596700Y-73322812D01*
X161596700Y-73344259D01*
X161595149Y-73363969D01*
X161591794Y-73385152D01*
X161589617Y-73384807D01*
X161571009Y-73441539D01*
X161560836Y-73454439D01*
X161516160Y-73504056D01*
X161512857Y-73509777D01*
X161433352Y-73647484D01*
X161420673Y-73669444D01*
X161361658Y-73851072D01*
X161360968Y-73857633D01*
X161360968Y-73857635D01*
X161342386Y-74034435D01*
X161341696Y-74041000D01*
X161342386Y-74047565D01*
X161357094Y-74187500D01*
X161361658Y-74230928D01*
X161420673Y-74412556D01*
X161516160Y-74577944D01*
X161520578Y-74582851D01*
X161520579Y-74582852D01*
X161639525Y-74714955D01*
X161643947Y-74719866D01*
X161798448Y-74832118D01*
X161804476Y-74834802D01*
X161804478Y-74834803D01*
X161966881Y-74907109D01*
X161972912Y-74909794D01*
X162066312Y-74929647D01*
X162153256Y-74948128D01*
X162153261Y-74948128D01*
X162159713Y-74949500D01*
X162350687Y-74949500D01*
X162357139Y-74948128D01*
X162357144Y-74948128D01*
X162444088Y-74929647D01*
X162537488Y-74909794D01*
X162543519Y-74907109D01*
X162705922Y-74834803D01*
X162705924Y-74834802D01*
X162711952Y-74832118D01*
X162866453Y-74719866D01*
X162870875Y-74714955D01*
X162989821Y-74582852D01*
X162989822Y-74582851D01*
X162994240Y-74577944D01*
X163089727Y-74412556D01*
X163148742Y-74230928D01*
X163153307Y-74187500D01*
X163168014Y-74047565D01*
X163168704Y-74041000D01*
X163168014Y-74034435D01*
X163149432Y-73857635D01*
X163149432Y-73857633D01*
X163148742Y-73851072D01*
X163089727Y-73669444D01*
X163086423Y-73663721D01*
X163077049Y-73647484D01*
X163060310Y-73578489D01*
X163083529Y-73511397D01*
X163097072Y-73495388D01*
X163319080Y-73273380D01*
X163381392Y-73239354D01*
X163452207Y-73244419D01*
X163509043Y-73286966D01*
X163533485Y-73349304D01*
X163539993Y-73411218D01*
X163546058Y-73468928D01*
X163605073Y-73650556D01*
X163608376Y-73656278D01*
X163608377Y-73656279D01*
X163614074Y-73666146D01*
X163700560Y-73815944D01*
X163704978Y-73820851D01*
X163704979Y-73820852D01*
X163732189Y-73851072D01*
X163828347Y-73957866D01*
X163927443Y-74029864D01*
X163977504Y-74066235D01*
X163982848Y-74070118D01*
X163988876Y-74072802D01*
X163988878Y-74072803D01*
X164151281Y-74145109D01*
X164157312Y-74147794D01*
X164250713Y-74167647D01*
X164337656Y-74186128D01*
X164337661Y-74186128D01*
X164344113Y-74187500D01*
X164535087Y-74187500D01*
X164541539Y-74186128D01*
X164541544Y-74186128D01*
X164628487Y-74167647D01*
X164721888Y-74147794D01*
X164727919Y-74145109D01*
X164890322Y-74072803D01*
X164890324Y-74072802D01*
X164896352Y-74070118D01*
X164901691Y-74066239D01*
X164901698Y-74066235D01*
X164908128Y-74061563D01*
X164982187Y-74037500D01*
X177154229Y-74037500D01*
X177222350Y-74057502D01*
X177243324Y-74074405D01*
X179654630Y-76485711D01*
X179667016Y-76500123D01*
X179675549Y-76511718D01*
X179675554Y-76511723D01*
X179679892Y-76517618D01*
X179685470Y-76522357D01*
X179685473Y-76522360D01*
X179720168Y-76551835D01*
X179727684Y-76558765D01*
X179733380Y-76564461D01*
X179736241Y-76566724D01*
X179736246Y-76566729D01*
X179755666Y-76582093D01*
X179759067Y-76584882D01*
X179814685Y-76632133D01*
X179821205Y-76635462D01*
X179826252Y-76638828D01*
X179831376Y-76641993D01*
X179837117Y-76646535D01*
X179843748Y-76649634D01*
X179843751Y-76649636D01*
X179903230Y-76677434D01*
X179907176Y-76679362D01*
X179972208Y-76712569D01*
X179979314Y-76714308D01*
X179984964Y-76716409D01*
X179990721Y-76718324D01*
X179997350Y-76721422D01*
X180068835Y-76736291D01*
X180073101Y-76737257D01*
X180144010Y-76754608D01*
X180149612Y-76754956D01*
X180149615Y-76754956D01*
X180155164Y-76755300D01*
X180155162Y-76755335D01*
X180159134Y-76755575D01*
X180163355Y-76755952D01*
X180170515Y-76757441D01*
X180247942Y-76755346D01*
X180251350Y-76755300D01*
X183631229Y-76755300D01*
X183699350Y-76775302D01*
X183720324Y-76792205D01*
X184093475Y-77165356D01*
X184124213Y-77215514D01*
X184179073Y-77384356D01*
X184274560Y-77549744D01*
X184278978Y-77554651D01*
X184278979Y-77554652D01*
X184363932Y-77649002D01*
X184402347Y-77691666D01*
X184556848Y-77803918D01*
X184562876Y-77806602D01*
X184562878Y-77806603D01*
X184725281Y-77878909D01*
X184731312Y-77881594D01*
X184824712Y-77901447D01*
X184911656Y-77919928D01*
X184911661Y-77919928D01*
X184918113Y-77921300D01*
X185109087Y-77921300D01*
X185115539Y-77919928D01*
X185115544Y-77919928D01*
X185202488Y-77901447D01*
X185295888Y-77881594D01*
X185301919Y-77878909D01*
X185464322Y-77806603D01*
X185464324Y-77806602D01*
X185470352Y-77803918D01*
X185624853Y-77691666D01*
X185663268Y-77649002D01*
X185748221Y-77554652D01*
X185748222Y-77554651D01*
X185752640Y-77549744D01*
X185848127Y-77384356D01*
X185907142Y-77202728D01*
X185910000Y-77175542D01*
X185926414Y-77019365D01*
X185927104Y-77012800D01*
X185914454Y-76892440D01*
X185907832Y-76829435D01*
X185907832Y-76829433D01*
X185907142Y-76822872D01*
X185848127Y-76641244D01*
X185752640Y-76475856D01*
X185624853Y-76333934D01*
X185470352Y-76221682D01*
X185464324Y-76218998D01*
X185464322Y-76218997D01*
X185301919Y-76146691D01*
X185301918Y-76146691D01*
X185295888Y-76144006D01*
X185289433Y-76142634D01*
X185289424Y-76142631D01*
X185232828Y-76130601D01*
X185169931Y-76096450D01*
X184581370Y-75507889D01*
X184568984Y-75493477D01*
X184560451Y-75481882D01*
X184560446Y-75481877D01*
X184556108Y-75475982D01*
X184550530Y-75471243D01*
X184550527Y-75471240D01*
X184515832Y-75441765D01*
X184508316Y-75434835D01*
X184502621Y-75429140D01*
X184496480Y-75424282D01*
X184480349Y-75411519D01*
X184476945Y-75408728D01*
X184426897Y-75366209D01*
X184426895Y-75366208D01*
X184421315Y-75361467D01*
X184414799Y-75358139D01*
X184409750Y-75354772D01*
X184404621Y-75351605D01*
X184398884Y-75347066D01*
X184332725Y-75316145D01*
X184328825Y-75314239D01*
X184263792Y-75281031D01*
X184256684Y-75279292D01*
X184251041Y-75277193D01*
X184245278Y-75275276D01*
X184238650Y-75272178D01*
X184167183Y-75257313D01*
X184162899Y-75256343D01*
X184091990Y-75238992D01*
X184086388Y-75238644D01*
X184086385Y-75238644D01*
X184080836Y-75238300D01*
X184080838Y-75238264D01*
X184076845Y-75238025D01*
X184072653Y-75237651D01*
X184065485Y-75236160D01*
X183999871Y-75237935D01*
X183988079Y-75238254D01*
X183984672Y-75238300D01*
X183740397Y-75238300D01*
X183672276Y-75218298D01*
X183625783Y-75164642D01*
X183615679Y-75094368D01*
X183645173Y-75029788D01*
X183704899Y-74991404D01*
X183714200Y-74989053D01*
X183729890Y-74985718D01*
X183848088Y-74960594D01*
X183873006Y-74949500D01*
X184016522Y-74885603D01*
X184016524Y-74885602D01*
X184022552Y-74882918D01*
X184177053Y-74770666D01*
X184219297Y-74723749D01*
X184300421Y-74633652D01*
X184300422Y-74633651D01*
X184304840Y-74628744D01*
X184400327Y-74463356D01*
X184459342Y-74281728D01*
X184472555Y-74156013D01*
X184499568Y-74090358D01*
X184508770Y-74080090D01*
X185064655Y-73524205D01*
X185126967Y-73490179D01*
X185153750Y-73487300D01*
X186834629Y-73487300D01*
X186902750Y-73507302D01*
X186926177Y-73526727D01*
X186955866Y-73558122D01*
X187115375Y-73669811D01*
X187129051Y-73675729D01*
X187288225Y-73744610D01*
X187288229Y-73744611D01*
X187294084Y-73747145D01*
X187300331Y-73748450D01*
X187300334Y-73748451D01*
X187479957Y-73785976D01*
X187479962Y-73785977D01*
X187484693Y-73786965D01*
X187491085Y-73787300D01*
X188434063Y-73787300D01*
X188503351Y-73780262D01*
X188572778Y-73773210D01*
X188572779Y-73773210D01*
X188579127Y-73772565D01*
X188660243Y-73747145D01*
X188758851Y-73716244D01*
X188758856Y-73716242D01*
X188764941Y-73714335D01*
X188856250Y-73663721D01*
X188929671Y-73623023D01*
X188929674Y-73623021D01*
X188935250Y-73619930D01*
X188940091Y-73615781D01*
X188940095Y-73615778D01*
X189078255Y-73497360D01*
X189083098Y-73493209D01*
X189101933Y-73468928D01*
X189190943Y-73354176D01*
X189202446Y-73339347D01*
X189205266Y-73333617D01*
X189205268Y-73333613D01*
X189252446Y-73237736D01*
X189300468Y-73185445D01*
X189369138Y-73167419D01*
X189436653Y-73189379D01*
X189481577Y-73244355D01*
X189491500Y-73293366D01*
X189491500Y-87950633D01*
X189490000Y-87970018D01*
X189487690Y-87984851D01*
X189487690Y-87984855D01*
X189486309Y-87993724D01*
X189488984Y-88014183D01*
X189489928Y-88036007D01*
X189478096Y-88306998D01*
X189474648Y-88385964D01*
X189473690Y-88396913D01*
X189431696Y-88715898D01*
X189423982Y-88774490D01*
X189422074Y-88785307D01*
X189367448Y-89031712D01*
X189339647Y-89157114D01*
X189336802Y-89167731D01*
X189226679Y-89516997D01*
X189222285Y-89530932D01*
X189218529Y-89541254D01*
X189082365Y-89869984D01*
X189072784Y-89893114D01*
X189068142Y-89903067D01*
X188968815Y-90093873D01*
X188892295Y-90240867D01*
X188886799Y-90250387D01*
X188682180Y-90571574D01*
X188675876Y-90580578D01*
X188444038Y-90882716D01*
X188436972Y-90891137D01*
X188179686Y-91171914D01*
X188171914Y-91179686D01*
X187891137Y-91436972D01*
X187882716Y-91444038D01*
X187580578Y-91675876D01*
X187571574Y-91682180D01*
X187250387Y-91886799D01*
X187240868Y-91892294D01*
X186903067Y-92068142D01*
X186893123Y-92072780D01*
X186541254Y-92218529D01*
X186530939Y-92222282D01*
X186167732Y-92336802D01*
X186157115Y-92339647D01*
X185785307Y-92422074D01*
X185774498Y-92423981D01*
X185396914Y-92473690D01*
X185385965Y-92474648D01*
X185043446Y-92489603D01*
X185018571Y-92488223D01*
X185006276Y-92486309D01*
X184997374Y-92487473D01*
X184997372Y-92487473D01*
X184982323Y-92489441D01*
X184974714Y-92490436D01*
X184958379Y-92491500D01*
X155049367Y-92491500D01*
X155029982Y-92490000D01*
X155015149Y-92487690D01*
X155015145Y-92487690D01*
X155006276Y-92486309D01*
X154985817Y-92488984D01*
X154963993Y-92489928D01*
X154614035Y-92474648D01*
X154603086Y-92473690D01*
X154225502Y-92423981D01*
X154214693Y-92422074D01*
X153842885Y-92339647D01*
X153832268Y-92336802D01*
X153469061Y-92222282D01*
X153458746Y-92218529D01*
X153106877Y-92072780D01*
X153096933Y-92068142D01*
X152759132Y-91892294D01*
X152749613Y-91886799D01*
X152428426Y-91682180D01*
X152419422Y-91675876D01*
X152117284Y-91444038D01*
X152108863Y-91436972D01*
X151828086Y-91179686D01*
X151820314Y-91171914D01*
X151563028Y-90891137D01*
X151555962Y-90882716D01*
X151324124Y-90580578D01*
X151317820Y-90571574D01*
X151113201Y-90250387D01*
X151107705Y-90240867D01*
X151031185Y-90093873D01*
X150931858Y-89903067D01*
X150927216Y-89893114D01*
X150917636Y-89869984D01*
X150781471Y-89541254D01*
X150777715Y-89530932D01*
X150773322Y-89516997D01*
X150663198Y-89167731D01*
X150660353Y-89157114D01*
X150632552Y-89031712D01*
X150577926Y-88785307D01*
X150576018Y-88774490D01*
X150568305Y-88715898D01*
X150526310Y-88396913D01*
X150525352Y-88385964D01*
X150515258Y-88154784D01*
X150514294Y-88132703D01*
X152890743Y-88132703D01*
X152928268Y-88417734D01*
X153004129Y-88695036D01*
X153005813Y-88698984D01*
X153104337Y-88929968D01*
X153116923Y-88959476D01*
X153191473Y-89084040D01*
X153241562Y-89167732D01*
X153264561Y-89206161D01*
X153444313Y-89430528D01*
X153538342Y-89519758D01*
X153623197Y-89600282D01*
X153652851Y-89628423D01*
X153842936Y-89765013D01*
X153877898Y-89790136D01*
X153886317Y-89796186D01*
X153890112Y-89798195D01*
X153890113Y-89798196D01*
X153911869Y-89809715D01*
X154140392Y-89930712D01*
X154410373Y-90029511D01*
X154691264Y-90090755D01*
X154719841Y-90093004D01*
X154914282Y-90108307D01*
X154914291Y-90108307D01*
X154916739Y-90108500D01*
X155072271Y-90108500D01*
X155074407Y-90108354D01*
X155074418Y-90108354D01*
X155282548Y-90094165D01*
X155282554Y-90094164D01*
X155286825Y-90093873D01*
X155291020Y-90093004D01*
X155291022Y-90093004D01*
X155427584Y-90064723D01*
X155568342Y-90035574D01*
X155839343Y-89939607D01*
X155929422Y-89893114D01*
X156091005Y-89809715D01*
X156091006Y-89809715D01*
X156094812Y-89807750D01*
X156098313Y-89805289D01*
X156098317Y-89805287D01*
X156294861Y-89667153D01*
X156330023Y-89642441D01*
X156408403Y-89569606D01*
X156527570Y-89458869D01*
X163290401Y-89458869D01*
X163290771Y-89465690D01*
X163296295Y-89516552D01*
X163299921Y-89531804D01*
X163345076Y-89652254D01*
X163353614Y-89667849D01*
X163430115Y-89769924D01*
X163442676Y-89782485D01*
X163544751Y-89858986D01*
X163560346Y-89867524D01*
X163680794Y-89912678D01*
X163696049Y-89916305D01*
X163746914Y-89921831D01*
X163753728Y-89922200D01*
X164726285Y-89922200D01*
X164741524Y-89917725D01*
X164742729Y-89916335D01*
X164744400Y-89908652D01*
X164744400Y-89904084D01*
X165252400Y-89904084D01*
X165256875Y-89919323D01*
X165258265Y-89920528D01*
X165265948Y-89922199D01*
X166243069Y-89922199D01*
X166249890Y-89921829D01*
X166300752Y-89916305D01*
X166316004Y-89912679D01*
X166436454Y-89867524D01*
X166452049Y-89858986D01*
X166554124Y-89782485D01*
X166566685Y-89769924D01*
X166643186Y-89667849D01*
X166651724Y-89652254D01*
X166696878Y-89531806D01*
X166700505Y-89516551D01*
X166706031Y-89465686D01*
X166706400Y-89458872D01*
X166706400Y-88989606D01*
X166726402Y-88921485D01*
X166780058Y-88874992D01*
X166850332Y-88864888D01*
X166914912Y-88894382D01*
X166943391Y-88929967D01*
X167053425Y-89134751D01*
X167056220Y-89138494D01*
X167056222Y-89138497D01*
X167202571Y-89334482D01*
X167202576Y-89334488D01*
X167205363Y-89338220D01*
X167208672Y-89341500D01*
X167208677Y-89341506D01*
X167333946Y-89465686D01*
X167385707Y-89516997D01*
X167389469Y-89519755D01*
X167389472Y-89519758D01*
X167552810Y-89639522D01*
X167590494Y-89667153D01*
X167594629Y-89669329D01*
X167594633Y-89669331D01*
X167712689Y-89731443D01*
X167815227Y-89785391D01*
X167949560Y-89832302D01*
X168050421Y-89867524D01*
X168054968Y-89869112D01*
X168304450Y-89916478D01*
X168424932Y-89921211D01*
X168553525Y-89926264D01*
X168553530Y-89926264D01*
X168558193Y-89926447D01*
X168657174Y-89915607D01*
X168805969Y-89899312D01*
X168805975Y-89899311D01*
X168810622Y-89898802D01*
X168832227Y-89893114D01*
X169051673Y-89835338D01*
X169056193Y-89834148D01*
X169205680Y-89769924D01*
X169285207Y-89735757D01*
X169285210Y-89735755D01*
X169289510Y-89733908D01*
X169293490Y-89731445D01*
X169293494Y-89731443D01*
X169501464Y-89602747D01*
X169501466Y-89602745D01*
X169505447Y-89600282D01*
X169581164Y-89536183D01*
X169695689Y-89439231D01*
X169695691Y-89439229D01*
X169699262Y-89436206D01*
X169866695Y-89245284D01*
X169882564Y-89220614D01*
X170001541Y-89035642D01*
X170004069Y-89031712D01*
X170108367Y-88800180D01*
X170126928Y-88734367D01*
X170164669Y-88674233D01*
X170228930Y-88644050D01*
X170299309Y-88653400D01*
X170353459Y-88699316D01*
X170366785Y-88725989D01*
X170433231Y-88911058D01*
X170553425Y-89134751D01*
X170556220Y-89138494D01*
X170556222Y-89138497D01*
X170702571Y-89334482D01*
X170702576Y-89334488D01*
X170705363Y-89338220D01*
X170708672Y-89341500D01*
X170708677Y-89341506D01*
X170833946Y-89465686D01*
X170885707Y-89516997D01*
X170889469Y-89519755D01*
X170889472Y-89519758D01*
X171052810Y-89639522D01*
X171090494Y-89667153D01*
X171094629Y-89669329D01*
X171094633Y-89669331D01*
X171212689Y-89731443D01*
X171315227Y-89785391D01*
X171449560Y-89832302D01*
X171550421Y-89867524D01*
X171554968Y-89869112D01*
X171804450Y-89916478D01*
X171924932Y-89921211D01*
X172053525Y-89926264D01*
X172053530Y-89926264D01*
X172058193Y-89926447D01*
X172157174Y-89915607D01*
X172305969Y-89899312D01*
X172305975Y-89899311D01*
X172310622Y-89898802D01*
X172332227Y-89893114D01*
X172551673Y-89835338D01*
X172556193Y-89834148D01*
X172705680Y-89769924D01*
X172785207Y-89735757D01*
X172785210Y-89735755D01*
X172789510Y-89733908D01*
X172793490Y-89731445D01*
X172793494Y-89731443D01*
X173001464Y-89602747D01*
X173001466Y-89602745D01*
X173005447Y-89600282D01*
X173081164Y-89536183D01*
X173195689Y-89439231D01*
X173195691Y-89439229D01*
X173199262Y-89436206D01*
X173366695Y-89245284D01*
X173382564Y-89220614D01*
X173501541Y-89035642D01*
X173504069Y-89031712D01*
X173608367Y-88800180D01*
X173626928Y-88734367D01*
X173664669Y-88674233D01*
X173728930Y-88644050D01*
X173799309Y-88653400D01*
X173853459Y-88699316D01*
X173866785Y-88725989D01*
X173933231Y-88911058D01*
X174053425Y-89134751D01*
X174056220Y-89138494D01*
X174056222Y-89138497D01*
X174202571Y-89334482D01*
X174202576Y-89334488D01*
X174205363Y-89338220D01*
X174208672Y-89341500D01*
X174208677Y-89341506D01*
X174333946Y-89465686D01*
X174385707Y-89516997D01*
X174389469Y-89519755D01*
X174389472Y-89519758D01*
X174552810Y-89639522D01*
X174590494Y-89667153D01*
X174594629Y-89669329D01*
X174594633Y-89669331D01*
X174712689Y-89731443D01*
X174815227Y-89785391D01*
X174949560Y-89832302D01*
X175050421Y-89867524D01*
X175054968Y-89869112D01*
X175304450Y-89916478D01*
X175424932Y-89921211D01*
X175553525Y-89926264D01*
X175553530Y-89926264D01*
X175558193Y-89926447D01*
X175657174Y-89915607D01*
X175805969Y-89899312D01*
X175805975Y-89899311D01*
X175810622Y-89898802D01*
X175832227Y-89893114D01*
X176051673Y-89835338D01*
X176056193Y-89834148D01*
X176205680Y-89769924D01*
X176285207Y-89735757D01*
X176285210Y-89735755D01*
X176289510Y-89733908D01*
X176293490Y-89731445D01*
X176293494Y-89731443D01*
X176501464Y-89602747D01*
X176501466Y-89602745D01*
X176505447Y-89600282D01*
X176581164Y-89536183D01*
X176695689Y-89439231D01*
X176695691Y-89439229D01*
X176699262Y-89436206D01*
X176866695Y-89245284D01*
X176882564Y-89220614D01*
X177001541Y-89035642D01*
X177004069Y-89031712D01*
X177108367Y-88800180D01*
X177177296Y-88555775D01*
X177209343Y-88303867D01*
X177211691Y-88214200D01*
X177206956Y-88150488D01*
X177205634Y-88132703D01*
X182890743Y-88132703D01*
X182928268Y-88417734D01*
X183004129Y-88695036D01*
X183005813Y-88698984D01*
X183104337Y-88929968D01*
X183116923Y-88959476D01*
X183191473Y-89084040D01*
X183241562Y-89167732D01*
X183264561Y-89206161D01*
X183444313Y-89430528D01*
X183538342Y-89519758D01*
X183623197Y-89600282D01*
X183652851Y-89628423D01*
X183842936Y-89765013D01*
X183877898Y-89790136D01*
X183886317Y-89796186D01*
X183890112Y-89798195D01*
X183890113Y-89798196D01*
X183911869Y-89809715D01*
X184140392Y-89930712D01*
X184410373Y-90029511D01*
X184691264Y-90090755D01*
X184719841Y-90093004D01*
X184914282Y-90108307D01*
X184914291Y-90108307D01*
X184916739Y-90108500D01*
X185072271Y-90108500D01*
X185074407Y-90108354D01*
X185074418Y-90108354D01*
X185282548Y-90094165D01*
X185282554Y-90094164D01*
X185286825Y-90093873D01*
X185291020Y-90093004D01*
X185291022Y-90093004D01*
X185427584Y-90064723D01*
X185568342Y-90035574D01*
X185839343Y-89939607D01*
X185929422Y-89893114D01*
X186091005Y-89809715D01*
X186091006Y-89809715D01*
X186094812Y-89807750D01*
X186098313Y-89805289D01*
X186098317Y-89805287D01*
X186294861Y-89667153D01*
X186330023Y-89642441D01*
X186408403Y-89569606D01*
X186537479Y-89449661D01*
X186537481Y-89449658D01*
X186540622Y-89446740D01*
X186722713Y-89224268D01*
X186872927Y-88979142D01*
X186904748Y-88906653D01*
X186986757Y-88719830D01*
X186988483Y-88715898D01*
X187000972Y-88672057D01*
X187034095Y-88555775D01*
X187067244Y-88439406D01*
X187107751Y-88154784D01*
X187107845Y-88136951D01*
X187109235Y-87871583D01*
X187109235Y-87871576D01*
X187109257Y-87867297D01*
X187071732Y-87582266D01*
X186995871Y-87304964D01*
X186957793Y-87215692D01*
X186884763Y-87044476D01*
X186884761Y-87044472D01*
X186883077Y-87040524D01*
X186772016Y-86854955D01*
X186737643Y-86797521D01*
X186737640Y-86797517D01*
X186735439Y-86793839D01*
X186555687Y-86569472D01*
X186347149Y-86371577D01*
X186113683Y-86203814D01*
X186091843Y-86192250D01*
X186068654Y-86179972D01*
X185859608Y-86069288D01*
X185589627Y-85970489D01*
X185308736Y-85909245D01*
X185277685Y-85906801D01*
X185085718Y-85891693D01*
X185085709Y-85891693D01*
X185083261Y-85891500D01*
X184927729Y-85891500D01*
X184925593Y-85891646D01*
X184925582Y-85891646D01*
X184717452Y-85905835D01*
X184717446Y-85905836D01*
X184713175Y-85906127D01*
X184708980Y-85906996D01*
X184708978Y-85906996D01*
X184572417Y-85935276D01*
X184431658Y-85964426D01*
X184160657Y-86060393D01*
X183905188Y-86192250D01*
X183901687Y-86194711D01*
X183901683Y-86194713D01*
X183891594Y-86201804D01*
X183669977Y-86357559D01*
X183654892Y-86371577D01*
X183464773Y-86548247D01*
X183459378Y-86553260D01*
X183277287Y-86775732D01*
X183127073Y-87020858D01*
X183011517Y-87284102D01*
X182932756Y-87560594D01*
X182892249Y-87845216D01*
X182892227Y-87849505D01*
X182892226Y-87849512D01*
X182890765Y-88128417D01*
X182890743Y-88132703D01*
X177205634Y-88132703D01*
X177193218Y-87965611D01*
X177193217Y-87965607D01*
X177192872Y-87960959D01*
X177191374Y-87954335D01*
X177137859Y-87717839D01*
X177136828Y-87713282D01*
X177130860Y-87697935D01*
X177046484Y-87480962D01*
X177046483Y-87480960D01*
X177044791Y-87476609D01*
X177024266Y-87440698D01*
X176921102Y-87260197D01*
X176921100Y-87260195D01*
X176918783Y-87256140D01*
X176761571Y-87056717D01*
X176591357Y-86896596D01*
X176580010Y-86885922D01*
X176580008Y-86885920D01*
X176576609Y-86882723D01*
X176448483Y-86793839D01*
X176371793Y-86740637D01*
X176371790Y-86740635D01*
X176367961Y-86737979D01*
X176363784Y-86735919D01*
X176363777Y-86735915D01*
X176144396Y-86627728D01*
X176144392Y-86627727D01*
X176140210Y-86625664D01*
X175898360Y-86548247D01*
X175893755Y-86547497D01*
X175652335Y-86508180D01*
X175652334Y-86508180D01*
X175647723Y-86507429D01*
X175520765Y-86505767D01*
X175398483Y-86504166D01*
X175398480Y-86504166D01*
X175393806Y-86504105D01*
X175142187Y-86538349D01*
X174898393Y-86609408D01*
X174667780Y-86715722D01*
X174663871Y-86718285D01*
X174459328Y-86852389D01*
X174459323Y-86852393D01*
X174455415Y-86854955D01*
X174408760Y-86896596D01*
X174327047Y-86969528D01*
X174265962Y-87024048D01*
X174103583Y-87219287D01*
X173971847Y-87436382D01*
X173970038Y-87440696D01*
X173970037Y-87440698D01*
X173910673Y-87582266D01*
X173873646Y-87670565D01*
X173872495Y-87675097D01*
X173870416Y-87683284D01*
X173834261Y-87744385D01*
X173770812Y-87776239D01*
X173700213Y-87768734D01*
X173644879Y-87724251D01*
X173630860Y-87697935D01*
X173546484Y-87480962D01*
X173546483Y-87480960D01*
X173544791Y-87476609D01*
X173524266Y-87440698D01*
X173421102Y-87260197D01*
X173421100Y-87260195D01*
X173418783Y-87256140D01*
X173261571Y-87056717D01*
X173091357Y-86896596D01*
X173080010Y-86885922D01*
X173080008Y-86885920D01*
X173076609Y-86882723D01*
X172948483Y-86793839D01*
X172871793Y-86740637D01*
X172871790Y-86740635D01*
X172867961Y-86737979D01*
X172863784Y-86735919D01*
X172863777Y-86735915D01*
X172644396Y-86627728D01*
X172644392Y-86627727D01*
X172640210Y-86625664D01*
X172398360Y-86548247D01*
X172393755Y-86547497D01*
X172152335Y-86508180D01*
X172152334Y-86508180D01*
X172147723Y-86507429D01*
X172020765Y-86505767D01*
X171898483Y-86504166D01*
X171898480Y-86504166D01*
X171893806Y-86504105D01*
X171642187Y-86538349D01*
X171398393Y-86609408D01*
X171167780Y-86715722D01*
X171163871Y-86718285D01*
X170959328Y-86852389D01*
X170959323Y-86852393D01*
X170955415Y-86854955D01*
X170908760Y-86896596D01*
X170827047Y-86969528D01*
X170765962Y-87024048D01*
X170603583Y-87219287D01*
X170471847Y-87436382D01*
X170470038Y-87440696D01*
X170470037Y-87440698D01*
X170410673Y-87582266D01*
X170373646Y-87670565D01*
X170372495Y-87675097D01*
X170370416Y-87683284D01*
X170334261Y-87744385D01*
X170270812Y-87776239D01*
X170200213Y-87768734D01*
X170144879Y-87724251D01*
X170130860Y-87697935D01*
X170046484Y-87480962D01*
X170046483Y-87480960D01*
X170044791Y-87476609D01*
X170024266Y-87440698D01*
X169921102Y-87260197D01*
X169921100Y-87260195D01*
X169918783Y-87256140D01*
X169761571Y-87056717D01*
X169591357Y-86896596D01*
X169580010Y-86885922D01*
X169580008Y-86885920D01*
X169576609Y-86882723D01*
X169448483Y-86793839D01*
X169371793Y-86740637D01*
X169371790Y-86740635D01*
X169367961Y-86737979D01*
X169363784Y-86735919D01*
X169363777Y-86735915D01*
X169144396Y-86627728D01*
X169144392Y-86627727D01*
X169140210Y-86625664D01*
X168898360Y-86548247D01*
X168893755Y-86547497D01*
X168652335Y-86508180D01*
X168652334Y-86508180D01*
X168647723Y-86507429D01*
X168520765Y-86505767D01*
X168398483Y-86504166D01*
X168398480Y-86504166D01*
X168393806Y-86504105D01*
X168142187Y-86538349D01*
X167898393Y-86609408D01*
X167667780Y-86715722D01*
X167663871Y-86718285D01*
X167459328Y-86852389D01*
X167459323Y-86852393D01*
X167455415Y-86854955D01*
X167408760Y-86896596D01*
X167327047Y-86969528D01*
X167265962Y-87024048D01*
X167103583Y-87219287D01*
X166971847Y-87436382D01*
X166970038Y-87440696D01*
X166970037Y-87440698D01*
X166948596Y-87491829D01*
X166903807Y-87546915D01*
X166836346Y-87569041D01*
X166767633Y-87551183D01*
X166719481Y-87499010D01*
X166706399Y-87443103D01*
X166706399Y-86969531D01*
X166706029Y-86962710D01*
X166700505Y-86911848D01*
X166696879Y-86896596D01*
X166651724Y-86776146D01*
X166643186Y-86760551D01*
X166566685Y-86658476D01*
X166554124Y-86645915D01*
X166452049Y-86569414D01*
X166436454Y-86560876D01*
X166316006Y-86515722D01*
X166300751Y-86512095D01*
X166249886Y-86506569D01*
X166243072Y-86506200D01*
X165270515Y-86506200D01*
X165255276Y-86510675D01*
X165254071Y-86512065D01*
X165252400Y-86519748D01*
X165252400Y-89904084D01*
X164744400Y-89904084D01*
X164744400Y-88486315D01*
X164739925Y-88471076D01*
X164738535Y-88469871D01*
X164730852Y-88468200D01*
X163308516Y-88468200D01*
X163293277Y-88472675D01*
X163292072Y-88474065D01*
X163290401Y-88481748D01*
X163290401Y-89458869D01*
X156527570Y-89458869D01*
X156537479Y-89449661D01*
X156537481Y-89449658D01*
X156540622Y-89446740D01*
X156722713Y-89224268D01*
X156872927Y-88979142D01*
X156904748Y-88906653D01*
X156986757Y-88719830D01*
X156988483Y-88715898D01*
X157000972Y-88672057D01*
X157034095Y-88555775D01*
X157067244Y-88439406D01*
X157107751Y-88154784D01*
X157107845Y-88136951D01*
X157108866Y-87942085D01*
X163290400Y-87942085D01*
X163294875Y-87957324D01*
X163296265Y-87958529D01*
X163303948Y-87960200D01*
X164726285Y-87960200D01*
X164741524Y-87955725D01*
X164742729Y-87954335D01*
X164744400Y-87946652D01*
X164744400Y-86524316D01*
X164739925Y-86509077D01*
X164738535Y-86507872D01*
X164730852Y-86506201D01*
X163753731Y-86506201D01*
X163746910Y-86506571D01*
X163696048Y-86512095D01*
X163680796Y-86515721D01*
X163560346Y-86560876D01*
X163544751Y-86569414D01*
X163442676Y-86645915D01*
X163430115Y-86658476D01*
X163353614Y-86760551D01*
X163345076Y-86776146D01*
X163299922Y-86896594D01*
X163296295Y-86911849D01*
X163290769Y-86962714D01*
X163290400Y-86969528D01*
X163290400Y-87942085D01*
X157108866Y-87942085D01*
X157109235Y-87871583D01*
X157109235Y-87871576D01*
X157109257Y-87867297D01*
X157071732Y-87582266D01*
X156995871Y-87304964D01*
X156957793Y-87215692D01*
X156884763Y-87044476D01*
X156884761Y-87044472D01*
X156883077Y-87040524D01*
X156772016Y-86854955D01*
X156737643Y-86797521D01*
X156737640Y-86797517D01*
X156735439Y-86793839D01*
X156555687Y-86569472D01*
X156347149Y-86371577D01*
X156113683Y-86203814D01*
X156091843Y-86192250D01*
X156068654Y-86179972D01*
X155859608Y-86069288D01*
X155589627Y-85970489D01*
X155308736Y-85909245D01*
X155277685Y-85906801D01*
X155085718Y-85891693D01*
X155085709Y-85891693D01*
X155083261Y-85891500D01*
X154927729Y-85891500D01*
X154925593Y-85891646D01*
X154925582Y-85891646D01*
X154717452Y-85905835D01*
X154717446Y-85905836D01*
X154713175Y-85906127D01*
X154708980Y-85906996D01*
X154708978Y-85906996D01*
X154572417Y-85935276D01*
X154431658Y-85964426D01*
X154160657Y-86060393D01*
X153905188Y-86192250D01*
X153901687Y-86194711D01*
X153901683Y-86194713D01*
X153891594Y-86201804D01*
X153669977Y-86357559D01*
X153654892Y-86371577D01*
X153464773Y-86548247D01*
X153459378Y-86553260D01*
X153277287Y-86775732D01*
X153127073Y-87020858D01*
X153011517Y-87284102D01*
X152932756Y-87560594D01*
X152892249Y-87845216D01*
X152892227Y-87849505D01*
X152892226Y-87849512D01*
X152890765Y-88128417D01*
X152890743Y-88132703D01*
X150514294Y-88132703D01*
X150510561Y-88047206D01*
X150512188Y-88020805D01*
X150512769Y-88017352D01*
X150512770Y-88017345D01*
X150513576Y-88012552D01*
X150513729Y-88000000D01*
X150509773Y-87972376D01*
X150508500Y-87954514D01*
X150508500Y-70235552D01*
X152930394Y-70235552D01*
X152932895Y-70262005D01*
X152934741Y-70281538D01*
X152935300Y-70293396D01*
X152935300Y-77083144D01*
X152934741Y-77095000D01*
X152933012Y-77102737D01*
X152933261Y-77110659D01*
X152935238Y-77173569D01*
X152935300Y-77177527D01*
X152935300Y-77206632D01*
X152935856Y-77211032D01*
X152936788Y-77222864D01*
X152938238Y-77269031D01*
X152940450Y-77276644D01*
X152940450Y-77276645D01*
X152944219Y-77289616D01*
X152948230Y-77308982D01*
X152950918Y-77330264D01*
X152953834Y-77337629D01*
X152953835Y-77337633D01*
X152967926Y-77373221D01*
X152971765Y-77384431D01*
X152984655Y-77428800D01*
X152995575Y-77447265D01*
X153004266Y-77465005D01*
X153012165Y-77484956D01*
X153039316Y-77522326D01*
X153045833Y-77532248D01*
X153065307Y-77565177D01*
X153065310Y-77565181D01*
X153069347Y-77572007D01*
X153084511Y-77587171D01*
X153097351Y-77602204D01*
X153109959Y-77619557D01*
X153145552Y-77649002D01*
X153154332Y-77656992D01*
X157299030Y-81801689D01*
X157333056Y-81864001D01*
X157335245Y-81877612D01*
X157348458Y-82003328D01*
X157407473Y-82184956D01*
X157502960Y-82350344D01*
X157630747Y-82492266D01*
X157785248Y-82604518D01*
X157791276Y-82607202D01*
X157791278Y-82607203D01*
X157953681Y-82679509D01*
X157959712Y-82682194D01*
X158053113Y-82702047D01*
X158140056Y-82720528D01*
X158140061Y-82720528D01*
X158146513Y-82721900D01*
X158337487Y-82721900D01*
X158343939Y-82720528D01*
X158343944Y-82720528D01*
X158430887Y-82702047D01*
X158524288Y-82682194D01*
X158530319Y-82679509D01*
X158692722Y-82607203D01*
X158692724Y-82607202D01*
X158698752Y-82604518D01*
X158853253Y-82492266D01*
X158981040Y-82350344D01*
X159076527Y-82184956D01*
X159135542Y-82003328D01*
X159155504Y-81813400D01*
X159135542Y-81623472D01*
X159076527Y-81441844D01*
X158981040Y-81276456D01*
X158853253Y-81134534D01*
X158698752Y-81022282D01*
X158692724Y-81019598D01*
X158692722Y-81019597D01*
X158530319Y-80947291D01*
X158530318Y-80947291D01*
X158524288Y-80944606D01*
X158430887Y-80924753D01*
X158343944Y-80906272D01*
X158343939Y-80906272D01*
X158337487Y-80904900D01*
X158316949Y-80904900D01*
X158248828Y-80884898D01*
X158227854Y-80867995D01*
X154289205Y-76929345D01*
X154255179Y-76867033D01*
X154252300Y-76840250D01*
X154252300Y-70581350D01*
X154272302Y-70513229D01*
X154289205Y-70492255D01*
X155302854Y-69478605D01*
X155365166Y-69444580D01*
X155391949Y-69441700D01*
X156621976Y-69441700D01*
X156690097Y-69461702D01*
X156696034Y-69465762D01*
X156845448Y-69574318D01*
X156851476Y-69577002D01*
X156851478Y-69577003D01*
X157013881Y-69649309D01*
X157019912Y-69651994D01*
X157113313Y-69671847D01*
X157200256Y-69690328D01*
X157200261Y-69690328D01*
X157206713Y-69691700D01*
X157397687Y-69691700D01*
X157404139Y-69690328D01*
X157404144Y-69690328D01*
X157491087Y-69671847D01*
X157584488Y-69651994D01*
X157590519Y-69649309D01*
X157752922Y-69577003D01*
X157752924Y-69577002D01*
X157758952Y-69574318D01*
X157913453Y-69462066D01*
X157917875Y-69457155D01*
X158036821Y-69325052D01*
X158036822Y-69325051D01*
X158041240Y-69320144D01*
X158136727Y-69154756D01*
X158195742Y-68973128D01*
X158200307Y-68929700D01*
X158215014Y-68789765D01*
X158215704Y-68783200D01*
X158215014Y-68776635D01*
X158196432Y-68599835D01*
X158196432Y-68599833D01*
X158195742Y-68593272D01*
X158136727Y-68411644D01*
X158041240Y-68246256D01*
X158015264Y-68217406D01*
X157917875Y-68109245D01*
X157917874Y-68109244D01*
X157913453Y-68104334D01*
X157799029Y-68021200D01*
X157764294Y-67995963D01*
X157764293Y-67995962D01*
X157758952Y-67992082D01*
X157752924Y-67989398D01*
X157752922Y-67989397D01*
X157590519Y-67917091D01*
X157590518Y-67917091D01*
X157584488Y-67914406D01*
X157491088Y-67894553D01*
X157404144Y-67876072D01*
X157404139Y-67876072D01*
X157397687Y-67874700D01*
X157206713Y-67874700D01*
X157200261Y-67876072D01*
X157200256Y-67876072D01*
X157113312Y-67894553D01*
X157019912Y-67914406D01*
X157013882Y-67917091D01*
X157013881Y-67917091D01*
X156851478Y-67989397D01*
X156851476Y-67989398D01*
X156845448Y-67992082D01*
X156840107Y-67995962D01*
X156840106Y-67995963D01*
X156796335Y-68027765D01*
X156696292Y-68100451D01*
X156696037Y-68100636D01*
X156629169Y-68124494D01*
X156621976Y-68124700D01*
X155149056Y-68124700D01*
X155137200Y-68124141D01*
X155137197Y-68124141D01*
X155129463Y-68122412D01*
X155074446Y-68124141D01*
X155058631Y-68124638D01*
X155054673Y-68124700D01*
X155025568Y-68124700D01*
X155021168Y-68125256D01*
X155009336Y-68126188D01*
X154963169Y-68127638D01*
X154942579Y-68133620D01*
X154923218Y-68137630D01*
X154916230Y-68138512D01*
X154909796Y-68139325D01*
X154909795Y-68139325D01*
X154901936Y-68140318D01*
X154894571Y-68143234D01*
X154894567Y-68143235D01*
X154858982Y-68157324D01*
X154847752Y-68161169D01*
X154803399Y-68174055D01*
X154796575Y-68178091D01*
X154784943Y-68184970D01*
X154767187Y-68193669D01*
X154747244Y-68201565D01*
X154734082Y-68211128D01*
X154709868Y-68228720D01*
X154699949Y-68235235D01*
X154667023Y-68254708D01*
X154667019Y-68254711D01*
X154660193Y-68258748D01*
X154645032Y-68273909D01*
X154630000Y-68286748D01*
X154612643Y-68299359D01*
X154607590Y-68305467D01*
X154583194Y-68334957D01*
X154575204Y-68343737D01*
X153186196Y-69732745D01*
X153177413Y-69740737D01*
X153170720Y-69744984D01*
X153165294Y-69750762D01*
X153122195Y-69796658D01*
X153119440Y-69799500D01*
X153098873Y-69820067D01*
X153096156Y-69823570D01*
X153088448Y-69832595D01*
X153056828Y-69866267D01*
X153053007Y-69873218D01*
X153053006Y-69873219D01*
X153046497Y-69885058D01*
X153035643Y-69901582D01*
X153027818Y-69911671D01*
X153022496Y-69918532D01*
X153019349Y-69925804D01*
X153019348Y-69925806D01*
X153004146Y-69960935D01*
X152998924Y-69971595D01*
X152985801Y-69995466D01*
X152976676Y-70012063D01*
X152971341Y-70032841D01*
X152964942Y-70051531D01*
X152956420Y-70071224D01*
X152955180Y-70079055D01*
X152949194Y-70116848D01*
X152946787Y-70128471D01*
X152935300Y-70173212D01*
X152935300Y-70194659D01*
X152933749Y-70214369D01*
X152930394Y-70235552D01*
X150508500Y-70235552D01*
X150508500Y-57132703D01*
X152890743Y-57132703D01*
X152928268Y-57417734D01*
X153004129Y-57695036D01*
X153005813Y-57698984D01*
X153114807Y-57954514D01*
X153116923Y-57959476D01*
X153264561Y-58206161D01*
X153444313Y-58430528D01*
X153652851Y-58628423D01*
X153886317Y-58796186D01*
X153890112Y-58798195D01*
X153890113Y-58798196D01*
X153911869Y-58809715D01*
X154140392Y-58930712D01*
X154410373Y-59029511D01*
X154691264Y-59090755D01*
X154719841Y-59093004D01*
X154914282Y-59108307D01*
X154914291Y-59108307D01*
X154916739Y-59108500D01*
X155072271Y-59108500D01*
X155074407Y-59108354D01*
X155074418Y-59108354D01*
X155282548Y-59094165D01*
X155282554Y-59094164D01*
X155286825Y-59093873D01*
X155291020Y-59093004D01*
X155291022Y-59093004D01*
X155427583Y-59064724D01*
X155568342Y-59035574D01*
X155839343Y-58939607D01*
X156094812Y-58807750D01*
X156098313Y-58805289D01*
X156098317Y-58805287D01*
X156212418Y-58725095D01*
X156330023Y-58642441D01*
X156540622Y-58446740D01*
X156722713Y-58224268D01*
X156872927Y-57979142D01*
X156988483Y-57715898D01*
X157067244Y-57439406D01*
X157107751Y-57154784D01*
X157107845Y-57136951D01*
X157109235Y-56871583D01*
X157109235Y-56871576D01*
X157109257Y-56867297D01*
X157071732Y-56582266D01*
X156995871Y-56304964D01*
X156937883Y-56169013D01*
X156884763Y-56044476D01*
X156884761Y-56044472D01*
X156883077Y-56040524D01*
X156735439Y-55793839D01*
X156555687Y-55569472D01*
X156347149Y-55371577D01*
X156157064Y-55234987D01*
X156117172Y-55206321D01*
X156117171Y-55206320D01*
X156113683Y-55203814D01*
X156091843Y-55192250D01*
X156068654Y-55179972D01*
X155859608Y-55069288D01*
X155679263Y-55003291D01*
X155593658Y-54971964D01*
X155593656Y-54971963D01*
X155589627Y-54970489D01*
X155308736Y-54909245D01*
X155277685Y-54906801D01*
X155085718Y-54891693D01*
X155085709Y-54891693D01*
X155083261Y-54891500D01*
X154927729Y-54891500D01*
X154925593Y-54891646D01*
X154925582Y-54891646D01*
X154717452Y-54905835D01*
X154717446Y-54905836D01*
X154713175Y-54906127D01*
X154708980Y-54906996D01*
X154708978Y-54906996D01*
X154572417Y-54935276D01*
X154431658Y-54964426D01*
X154160657Y-55060393D01*
X153905188Y-55192250D01*
X153901687Y-55194711D01*
X153901683Y-55194713D01*
X153787582Y-55274905D01*
X153669977Y-55357559D01*
X153459378Y-55553260D01*
X153277287Y-55775732D01*
X153127073Y-56020858D01*
X153125347Y-56024791D01*
X153125346Y-56024792D01*
X153059546Y-56174689D01*
X153011517Y-56284102D01*
X152932756Y-56560594D01*
X152892249Y-56845216D01*
X152892227Y-56849505D01*
X152892226Y-56849512D01*
X152891263Y-57033420D01*
X152890743Y-57132703D01*
X150508500Y-57132703D01*
X150508500Y-57053250D01*
X150510246Y-57032345D01*
X150512770Y-57017344D01*
X150512770Y-57017341D01*
X150513576Y-57012552D01*
X150513729Y-57000000D01*
X150511464Y-56984183D01*
X150510326Y-56960508D01*
X150527391Y-56591395D01*
X150528465Y-56579806D01*
X150584172Y-56180453D01*
X150586311Y-56169013D01*
X150616531Y-56040524D01*
X150678628Y-55776504D01*
X150681811Y-55765319D01*
X150809950Y-55383007D01*
X150814154Y-55372155D01*
X150977023Y-55003291D01*
X150982211Y-54992873D01*
X151178412Y-54640625D01*
X151184538Y-54630730D01*
X151412418Y-54298067D01*
X151419432Y-54288780D01*
X151677020Y-53978577D01*
X151684861Y-53969976D01*
X151969976Y-53684861D01*
X151978577Y-53677020D01*
X152054812Y-53613716D01*
X152288780Y-53419432D01*
X152298067Y-53412418D01*
X152630730Y-53184538D01*
X152640625Y-53178412D01*
X152992873Y-52982211D01*
X153003291Y-52977023D01*
X153372155Y-52814154D01*
X153383007Y-52809950D01*
X153574163Y-52745881D01*
X153765328Y-52681808D01*
X153776504Y-52678628D01*
X154169013Y-52586311D01*
X154180453Y-52584172D01*
X154579806Y-52528465D01*
X154591395Y-52527391D01*
X154994182Y-52508769D01*
X155005818Y-52508769D01*
X155408605Y-52527391D01*
G37*
%TD.AperFunction*%
%TD*%
M02*
