M48
; DRILL file {KiCad (6.0.6)} date Sat Mar 25 21:06:15 2023
; FORMAT={-:-/ absolute / metric / decimal}
; #@! TF.CreationDate,2023-03-25T21:06:15+13:00
; #@! TF.GenerationSoftware,Kicad,Pcbnew,(6.0.6)
; #@! TF.FileFunction,MixedPlating,1,2
FMAT,2
METRIC
; #@! TA.AperFunction,Plated,PTH,ViaDrill
T1C0.400
; #@! TA.AperFunction,Plated,PTH,ComponentDrill
T2C0.600
; #@! TA.AperFunction,Plated,PTH,ComponentDrill
T3C1.200
; #@! TA.AperFunction,NonPlated,NPTH,ComponentDrill
T4C0.600
; #@! TA.AperFunction,NonPlated,NPTH,ComponentDrill
T5C3.200
%
G90
G05
T1
X156.743Y-64.389
X157.302Y-68.783
X158.064Y-64.973
X158.242Y-69.977
X158.242Y-81.813
X160.807Y-69.774
X160.934Y-64.224
X162.255Y-74.041
X164.44Y-73.279
X165.684Y-63.983
X165.76Y-66.573
X166.345Y-69.317
X166.522Y-76.175
X169.977Y-62.306
X173.101Y-76.327
X173.634Y-68.174
X174.219Y-84.125
X181.051Y-82.347
X181.534Y-62.967
X181.648Y-66.104
X181.966Y-64.745
X183.566Y-74.092
X185.014Y-77.013
X185.344Y-68.021
X185.674Y-66.777
T3
X164.998Y-88.214
X168.498Y-88.214
X171.998Y-88.214
X175.498Y-88.214
T4
X184.305Y-65.614
X184.305Y-71.394
T5
X155.0Y-57.0
X155.0Y-88.0
X185.0Y-57.0
X185.0Y-88.0
T2
X183.265Y-64.179G85X184.365Y-64.179
G05
X183.265Y-72.829G85X184.365Y-72.829
G05
X187.585Y-64.179G85X188.385Y-64.179
G05
X187.585Y-72.829G85X188.385Y-72.829
G05
T0
M30
